<svg width="52" height="35" viewBox="0 0 52 35" fill="none" xmlns="http://www.w3.org/2000/svg">
<g clip-path="url(#clip0_4_643)">
<path d="M36.5124 20.4708C39.1888 19.0425 39.8529 16.0295 41.612 13.8848C42.416 12.9032 42.3405 11.5474 42.3561 10.3141C42.3694 9.34833 41.7586 9.53423 41.2366 9.87657C39.9529 10.7199 39.0356 11.9306 38.1804 13.1888C37.6452 13.9733 37.1587 14.7917 36.6101 15.6577C36.79 13.4382 37.9139 10.8016 39.2355 9.49342C40.1483 8.58658 41.2566 7.83843 42.5049 8.34399C43.722 8.83823 43.3578 10.135 43.3067 11.1915C43.3 11.3479 43.3667 11.5089 43.4155 11.7401C44.7082 11.3661 45.9165 10.7267 47.2891 10.9058C48.3175 11.0396 49.0615 11.4568 48.6951 12.6493C48.3463 13.7851 48.9705 13.6672 49.6945 13.7012C51.6024 13.7896 52.251 14.6307 51.9156 16.5714C51.6291 18.2286 50.7895 19.6411 49.7945 20.9356C46.7738 24.8713 43.3778 28.4375 39.4043 31.3779C34.2869 35.164 28.6431 35.0461 22.8683 33.4478C19.0369 32.3891 15.6209 30.3668 12.1915 28.4057C10.2259 27.2835 8.24912 26.3381 5.89478 27.0455C7.47619 26.2837 9.08203 26.4197 10.6923 26.8097C12.4314 27.2314 13.9928 28.1087 15.6009 28.8637C19.5344 30.7046 23.4946 32.4503 27.8724 32.8946C30.2445 33.135 32.5544 32.8765 34.6445 31.6999C39.9395 28.7186 44.5483 24.8736 48.3064 20.0083C49.0282 19.0743 49.6523 18.0699 50.0655 16.9477C50.5319 15.6759 50.1321 15.1522 48.8017 15.3177C48.0154 15.4151 47.3202 15.7779 46.685 16.2449C46.2363 16.5736 45.7099 16.8684 45.4034 17.3127C43.0491 20.7383 39.7907 22.951 36.3036 24.3589C36.7412 23.5564 37.6629 22.7651 39.964 21.6339C40.9035 21.1736 41.5876 20.5638 42.1384 19.6592C43.3756 17.6324 44.8592 15.8028 46.8116 14.4335C47.4201 14.005 47.8644 13.4972 47.4668 12.7513C47.0537 11.9782 46.3585 12.384 45.841 12.6016C43.5288 13.5742 41.9518 15.4401 40.7525 17.5462C39.7796 19.2556 38.427 20.1466 36.5124 20.4708Z" fill="white"/>
<path d="M17.551 6.98396C20.7783 7.0021 23.4835 8.14019 25.8512 10.4935C25.0561 6.95222 25.367 3.68077 27.4993 0.5C29.6159 3.63769 29.978 6.88194 29.1206 10.4799C31.5083 8.22861 34.198 6.94542 37.4653 7.00663C36.3458 10.99 32.4612 13.3886 27.3393 13.3614C22.4507 13.3342 18.5838 10.8607 17.551 6.98396Z" fill="white"/>
<path d="M0 13.7898C2.7919 10.1035 7.44063 8.42811 11.714 9.55714C14.5237 10.3008 17.1179 11.5703 19.6499 12.9737C22.5218 14.5629 25.3803 16.1771 28.23 17.8072C29.8847 18.7548 31.3995 19.8997 32.5477 21.4663C33.6894 23.0216 33.8227 25.1028 32.8321 26.5492C31.7992 28.0568 30.3111 27.9231 28.7786 27.6034C27.8413 27.4084 26.9795 27.0548 26.1488 26.5923C23.2436 24.9736 20.6583 22.8289 17.7087 21.2577C19.1124 21.4164 20.3229 22.0694 21.5334 22.7132C23.7922 23.9125 25.9756 25.2751 28.3965 26.1252C29.3672 26.4676 30.4733 26.9505 31.2351 25.724C31.9658 24.5451 31.626 23.4138 30.8109 22.4502C30.2734 21.8177 29.6537 21.1988 28.954 20.7771C24.7073 18.2221 20.6339 15.3746 16.2605 13.0394C15.4765 12.62 14.6525 12.2754 13.8684 11.8583C9.66171 9.61608 5.66154 10.04 1.82795 12.7923C1.28823 13.18 0.706304 13.5065 0.139928 13.8533C0.115496 13.8692 0.0488638 13.8125 0.00222108 13.7876L0 13.7898Z" fill="white"/>
</g>
<defs>
<clipPath id="clip0_4_643">
<rect width="52" height="34" fill="white" transform="translate(0 0.5)"/>
</clipPath>
</defs>
</svg>
