<svg width="39" height="41" viewBox="0 0 39 41" fill="none" xmlns="http://www.w3.org/2000/svg">
<g clip-path="url(#clip0_4_625)">
<path d="M23.3311 25.7228C23.8501 25.1854 24.3554 24.6611 24.8608 24.1369C26.5407 22.3927 28.207 20.642 29.8971 18.911C30.8054 17.978 31.9424 17.6845 33.1989 18.0736C34.452 18.4626 35.1656 19.343 35.35 20.6024C35.3773 20.7871 35.4251 20.8299 35.6163 20.82C37.2246 20.7475 38.5221 21.6707 38.9045 23.1445C39.2186 24.3479 38.703 25.6535 37.6241 26.369C34.1174 28.6868 30.6107 31.0014 27.1041 33.3159C26.6124 33.639 26.1446 33.9951 25.5983 34.2358C24.994 34.4996 24.3589 34.5886 23.6999 34.5886C19.5991 34.5952 15.4983 34.6051 11.3976 34.615C10.4791 34.615 9.66301 34.9018 8.95622 35.4722C8.85378 35.5546 8.81964 35.6206 8.87768 35.7558C9.50936 37.2856 8.92549 38.9143 7.44702 39.7485C7.07485 39.9595 6.70267 40.1672 6.33049 40.3716C5.931 40.5925 5.59638 40.5332 5.3164 40.1903C3.60234 38.0802 1.88828 35.9701 0.174216 33.8566C-0.092112 33.5269 -0.0613818 33.1214 0.242505 32.884C0.556636 32.64 0.983444 32.6895 1.2566 33.0258C2.73848 34.8425 4.21353 36.6624 5.69199 38.4824C5.82174 38.6407 5.91393 38.9012 6.10173 38.9209C6.26562 38.9374 6.45341 38.7528 6.63097 38.6605C7.33776 38.2945 7.73725 37.7406 7.7475 36.9526C7.75091 36.5569 7.62799 36.191 7.3719 35.8777C6.33049 34.5919 5.28567 33.3093 4.24426 32.0235C2.99798 30.4903 1.7517 28.9572 0.505419 27.4241C0.300551 27.1735 0.252749 26.9031 0.420058 26.6229C0.566879 26.3756 0.805892 26.2767 1.09612 26.3031C1.34196 26.3261 1.50244 26.4778 1.64585 26.6559C1.88828 26.9592 1.89169 26.9559 2.16485 26.6987C4.80423 24.2193 7.95578 22.7257 11.5888 22.1751C13.8799 21.8289 16.1778 21.8355 18.4587 22.2246C20.5073 22.5774 22.0507 23.6819 23.1297 25.3931C23.1945 25.4953 23.256 25.5975 23.3277 25.7195L23.3311 25.7228ZM17.5333 33.283C17.5333 33.283 17.5333 33.2566 17.5333 33.2467C19.6162 33.2467 21.6956 33.2401 23.7784 33.2467C24.4545 33.2467 25.0486 33.0588 25.6017 32.6928C28.0431 31.0706 30.4947 29.4584 32.9394 27.8395C34.2301 26.9856 35.5242 26.1382 36.8114 25.281C37.4738 24.8392 37.7538 24.1105 37.5455 23.3984C37.2143 22.2609 35.8827 21.7894 34.831 22.4422C31.1946 24.6908 27.5616 26.9427 23.9286 29.1979C23.6999 29.3397 23.4745 29.4023 23.2048 29.4023C20.2478 29.3957 17.2875 29.399 14.3306 29.399C14.252 29.399 14.1735 29.4023 14.095 29.3924C13.8252 29.3561 13.634 29.2144 13.5384 28.9671C13.3609 28.5088 13.7023 28.0736 14.2384 28.0703C16.0788 28.0703 17.9158 28.0703 19.7562 28.0703C20.6576 28.0703 21.5556 28.0703 22.457 28.0703C22.5902 28.0703 22.655 28.0538 22.6311 27.8955C22.317 25.7854 20.4391 23.8929 18.2504 23.5401C15.932 23.1676 13.6067 23.1643 11.2917 23.5863C8.04455 24.1765 5.25152 25.5975 2.91603 27.8593C2.78628 27.9846 2.77604 28.0571 2.89554 28.2055C4.55839 30.2398 6.2144 32.2773 7.87042 34.3182C7.97968 34.4534 8.03773 34.4798 8.19138 34.3611C9.12352 33.6423 10.1888 33.283 11.3839 33.2863C13.436 33.2863 15.4847 33.2863 17.5368 33.2863L17.5333 33.283ZM23.9969 27.5527C24.072 27.5098 24.1369 27.4735 24.2018 27.434C27.3363 25.4953 30.4639 23.5467 33.6052 21.6212C33.933 21.4201 34.0184 21.1794 33.9911 20.853C33.9262 20.1211 33.5404 19.5968 32.8233 19.3529C32.0926 19.1056 31.4302 19.2737 30.8976 19.8276C28.6474 22.1587 26.4075 24.4996 24.1506 26.824C23.9321 27.0482 23.8194 27.246 23.9969 27.5527Z" fill="white"/>
<path d="M19.3326 0.50003C26.3083 0.486842 31.6759 4.8027 32.7924 10.6979C33.127 12.4717 33.0895 14.229 32.649 15.9798C32.5431 16.3919 32.188 16.6293 31.8022 16.5403C31.413 16.4512 31.2115 16.0886 31.3037 15.6731C32.188 11.7628 31.2764 8.2877 28.4765 5.33683C26.5644 3.32232 24.1436 2.17164 21.3232 1.90788C17.4 1.53861 14.0675 2.76511 11.4281 5.594C9.22577 7.95799 8.28338 10.777 8.53947 13.9488C8.72385 16.204 9.59112 18.2086 11.0423 19.9791C11.3325 20.3319 11.312 20.7374 10.9945 20.9847C10.6735 21.2353 10.2604 21.166 9.96671 20.8165C6.30299 16.4545 6.13227 10.1604 9.59795 5.65334C12.2032 2.26396 15.7406 0.598942 19.3326 0.50003Z" fill="white"/>
<path d="M11.3325 12.9926C11.3325 8.32397 15.2489 4.54883 20.094 4.54883C24.9016 4.54883 28.818 8.33386 28.818 12.9794C28.818 17.6777 24.9153 21.4496 20.0599 21.443C15.2387 21.4397 11.3325 17.658 11.3325 12.9893V12.9926ZM20.0872 20.1044C24.1572 20.1044 27.4351 16.9293 27.4351 12.986C27.4351 9.0724 24.1402 5.88744 20.0872 5.88744C16.0069 5.88744 12.7188 9.05592 12.7188 12.9827C12.7188 16.9392 15.9967 20.1044 20.0838 20.1011L20.0872 20.1044Z" fill="white"/>
<path d="M20.5653 18.479C17.3796 18.4427 14.9178 15.6798 15.3514 12.6234C15.5836 10.9946 16.3826 9.70217 17.8542 8.84823C19.797 7.72723 22.433 8.27784 23.7203 10.0484C24.9768 11.7793 24.369 14.2917 22.4637 15.2314C20.8419 16.0325 18.7317 15.2511 18.2059 13.6356C17.8952 12.6794 18.1069 11.8123 18.8205 11.0771C19.1005 10.7869 19.5273 10.777 19.8073 11.0309C20.0873 11.2881 20.0975 11.687 19.8278 11.987C19.1893 12.6992 19.3976 13.6224 20.2887 14.0312C21.016 14.3642 21.8765 14.1928 22.4057 13.6092C23.3378 12.5838 23.1398 11.0573 21.9721 10.2198C20.5277 9.18453 18.6191 9.48457 17.4889 10.9254C15.9968 12.8311 16.6318 15.6402 18.8273 16.7249C20.1283 17.3679 21.4257 17.2887 22.6686 16.5403C23.1603 16.2436 23.7271 16.4776 23.7851 17.0019C23.8159 17.2854 23.6827 17.4964 23.4403 17.6481C22.5662 18.202 21.6033 18.4757 20.5585 18.479H20.5653Z" fill="white"/>
</g>
<defs>
<clipPath id="clip0_4_625">
<rect width="39" height="40" fill="white" transform="translate(0 0.5)"/>
</clipPath>
</defs>
</svg>
