<svg width="40" height="39" viewBox="0 0 40 39" fill="none" xmlns="http://www.w3.org/2000/svg">
<g clip-path="url(#clip0_4_655)">
<mask id="path-1-outside-1_4_655" maskUnits="userSpaceOnUse" x="-1" y="-1.00049" width="42" height="41" fill="black">
<rect fill="white" x="-1" y="-1.00049" width="42" height="41"/>
<path d="M38.9035 20.34H35.0369C34.9783 20.4541 34.917 20.5682 34.8557 20.6823C34.8557 20.6823 34.8257 28.8969 34.7086 30.0941C34.5057 32.1863 32.7583 33.7602 30.6717 33.7616C29.7456 33.7616 28.8303 33.7286 28.0049 33.2117C27.7693 33.0646 27.546 32.8997 27.3321 32.7224C27.0829 32.5148 26.8377 32.3045 26.6443 32.0406C26.4632 31.7945 26.3229 31.5168 26.2317 31.2241C26.1962 31.1113 26.1649 30.9945 26.1377 30.8818C26.1336 30.868 26.1295 30.8543 26.1254 30.8405C26.0274 30.5079 25.9647 30.1642 25.9456 29.8178C25.9402 29.7189 25.9388 29.6213 25.9402 29.5223C25.9824 26.8267 26.0192 24.1312 26.0519 21.4356C26.0628 20.5737 25.6678 20.1599 24.8152 20.138C23.9258 20.1146 23.0351 20.1036 22.1457 20.0967C21.334 20.0912 20.924 20.505 20.9104 21.3215C20.875 23.5676 20.8355 25.8137 20.8055 28.0597C20.7919 29.0096 20.7429 29.9622 20.8763 30.9079C21.0588 32.2041 21.4661 33.422 22.1716 34.5313C22.241 34.6399 22.3446 34.7334 22.1457 34.853C21.3149 35.3533 20.465 35.7973 19.5021 35.976C19.0921 36.0516 18.7108 36.2001 18.3308 36.3692C17.0001 36.9575 15.6164 37.2668 14.1618 37.0166C13.5312 36.908 12.9101 36.7486 12.2727 36.6702C11.5168 36.5781 10.9693 36.1451 10.7364 35.4262C10.4667 34.5959 9.98867 33.899 9.53514 33.1774C7.61883 30.1381 6.28954 26.8212 5.07737 23.4549C3.49475 19.063 2.25671 14.5571 0.860683 10.1048C0.804841 9.92747 0.766706 9.75014 0.826633 9.55358C1.31967 7.94942 1.96933 6.42362 2.94587 5.0504C4.02729 3.5301 5.37292 2.2586 6.70494 0.974732C6.80028 0.882634 6.91469 0.848269 7.04543 0.856516C7.9852 0.916999 8.92497 0.967859 9.86337 1.03659C10.7323 1.09982 11.5876 1.24003 12.3994 1.58368C12.5615 1.65241 12.7249 1.71839 12.823 1.88196C13.143 2.41806 13.4536 2.96102 13.6497 3.55897C13.6796 3.65107 13.7573 3.75554 13.6429 3.84351C13.5325 3.92874 13.4181 3.88475 13.3282 3.81327C13.2247 3.72942 13.1335 3.6277 13.0477 3.52323C12.7644 3.17683 12.4838 2.82906 12.2073 2.47716C12.0466 2.27097 11.8437 2.15551 11.5917 2.08678C10.3019 1.73076 8.97809 1.56856 7.66105 1.36099C7.34371 1.31151 7.09038 1.47233 7.06587 1.71564C7.03863 1.98093 7.2116 2.16513 7.55482 2.20637C8.38699 2.30534 9.21371 2.43593 10.0363 2.59538C10.8004 2.74383 11.5863 2.80707 12.0711 3.59196C12.3898 4.10606 12.4307 4.07032 12.0711 4.57342C11.9431 4.75349 11.8709 4.76449 11.7279 4.58992C11.1913 3.93286 10.6002 3.36103 9.65635 3.45175C9.63728 3.45313 9.61685 3.44213 9.59642 3.43938C8.58992 3.31429 7.58478 3.19058 6.57828 3.06686C6.32767 3.03662 6.14789 3.13834 6.08524 3.38989C6.0185 3.65794 6.18466 3.79677 6.40122 3.89025C6.45706 3.91361 6.52243 3.91636 6.58372 3.92324C7.76456 4.06482 8.9454 4.20503 10.1276 4.34386C10.2652 4.36036 10.3905 4.39335 10.4912 4.49644C10.9053 4.92119 11.3152 5.34869 11.7375 5.76382C11.8873 5.91228 11.8641 6.02224 11.7334 6.15833C11.5304 6.37139 11.3003 6.54459 11.0428 6.68342C10.4531 7.00095 10.3537 6.9982 9.90423 6.52397C9.37987 5.97138 8.87321 5.43804 8.03423 5.37343C7.36822 5.32257 6.72537 5.0669 6.04983 5.03666C5.8142 5.02704 5.64668 5.13563 5.62761 5.39405C5.60855 5.64973 5.71614 5.80643 5.98173 5.85454C6.64365 5.97276 7.30421 6.09235 7.96205 6.23118C8.20993 6.28342 8.49186 6.27242 8.68798 6.47174C8.99443 6.78239 9.28589 7.1068 9.58689 7.42295C9.70674 7.54942 9.69721 7.66488 9.61413 7.81471C9.45341 8.10338 9.19736 8.27108 8.92905 8.43191C8.74927 8.53913 8.57766 8.53638 8.4115 8.40304C8.19222 8.22847 7.97158 8.05527 7.74958 7.88482C7.53575 7.72124 7.33962 7.7721 7.17074 7.95492C6.99777 8.14324 7.0754 8.33431 7.21841 8.48552C7.51259 8.7948 7.83266 9.07659 8.23036 9.24979C8.45372 9.34739 8.68798 9.41199 8.9236 9.32952C9.61685 9.09034 10.1862 8.69995 10.4354 7.9618C10.4885 7.80234 10.5702 7.72399 10.7296 7.68963C11.1695 7.59203 11.5699 7.40096 11.92 7.11092C12.048 7.00508 12.1556 6.89649 12.3054 7.08206C12.4539 7.26488 12.3272 7.36522 12.2087 7.46969C11.7075 7.90681 11.2335 8.37005 10.8031 8.8814C10.4327 9.32127 9.94509 9.59069 9.37442 9.70203C8.78741 9.8175 8.20039 9.76526 7.61066 9.75289C7.05497 9.7419 6.66408 10.1144 6.6382 10.6725C6.62867 10.8691 6.64093 11.0698 6.66408 11.2663C6.78121 12.2808 7.18163 13.1949 7.66922 14.0732C8.57766 15.7118 9.73943 17.1675 10.9039 18.6231C12.7617 20.9435 14.8278 23.1043 16.2402 25.7628C16.3518 25.9731 16.5275 26.0281 16.7373 25.969C16.9484 25.9099 17.0247 25.7339 17.0138 25.5319C17.0001 25.3037 16.9552 25.0769 16.9348 24.8473C16.7918 23.2432 16.9252 21.6541 17.2167 20.0775C17.5885 18.0692 18.2273 16.1461 19.005 14.2643C19.8303 12.2657 20.9553 10.5172 22.8172 9.33776C23.08 9.17144 23.1236 8.93089 22.9847 8.72195C22.8281 8.48827 22.6633 8.45665 22.3732 8.63535C21.1419 9.3955 20.145 10.4072 19.3904 11.6416C18.4411 13.1949 17.801 14.8953 17.2439 16.6231C16.5166 18.8775 16.0427 21.1799 16.0672 23.5662C16.0672 23.6047 16.0726 23.6514 16.0005 23.6817C15.8234 23.536 15.7267 23.3146 15.5891 23.1277C14.1917 21.2198 12.6323 19.4438 11.1573 17.5991C10.1303 16.3152 9.11973 15.0176 8.33659 13.5591C7.88986 12.7289 7.50987 11.8766 7.47174 10.9076C7.46356 10.6931 7.51532 10.601 7.74141 10.6106C8.0819 10.6258 8.42376 10.623 8.76562 10.6175C9.8947 10.5983 10.8372 10.1611 11.5658 9.29103C11.8818 8.91439 12.2387 8.58586 12.5873 8.24359C12.9442 7.89169 13.3065 7.62365 13.8363 7.73636C13.8853 7.74736 13.9398 7.73911 13.9902 7.73086C15.1206 7.52055 15.5197 7.24013 15.5496 5.99063C15.5592 5.5865 15.4693 5.18237 15.3154 4.80023C15.2051 4.52531 15.0757 4.26826 14.8101 4.10743C14.678 4.02771 14.6126 3.893 14.5772 3.74866C14.3674 2.90741 13.9507 2.16376 13.5176 1.4256C13.3936 1.21529 13.2384 1.04346 13.0082 0.940367C12.0725 0.523865 11.1 0.26819 10.0745 0.211832C9.05163 0.155473 8.02878 0.0991148 7.00866 0.00564237C6.67498 -0.0245987 6.43254 0.0551278 6.20373 0.287434C5.78016 0.716308 5.34568 1.13556 4.90849 1.54931C2.71842 3.61945 1.01867 6.00575 0.136109 8.94051C-0.0368624 9.51646 -0.0532061 10.0581 0.134747 10.6244C0.367646 11.3254 0.586925 12.032 0.800756 12.7399C2.06467 16.9283 3.28909 21.129 4.83767 25.2226C5.89048 28.0034 7.0645 30.7278 8.60354 33.2777C9.09521 34.0928 9.66997 34.8489 9.9914 35.7767C10.351 36.8159 11.1641 37.385 12.2591 37.5183C12.5873 37.5582 12.921 37.5843 13.237 37.6723C14.776 38.097 16.2837 37.9664 17.786 37.4798C18.3676 37.2915 18.896 36.9547 19.5007 36.8489C20.6012 36.6565 21.5859 36.185 22.5175 35.5925C22.7395 35.4509 22.8349 35.4784 22.9888 35.664C23.8468 36.6936 24.886 37.4936 26.0886 38.0709C28.0989 39.0359 30.2331 39.1981 32.3674 38.7912C36.7707 37.95 39.8487 34.1781 39.9059 29.712C39.94 27.0068 39.9672 24.3002 39.9972 21.5936C40.0054 20.8046 39.6444 20.3895 38.9008 20.3386L38.9035 20.34ZM14.584 5.2511C14.663 5.50127 14.7229 5.7542 14.712 5.97413C14.7243 6.61607 14.5867 6.77552 14.0079 6.87174C13.7682 6.91161 13.5339 6.87999 13.2969 6.86762C13.1566 6.86075 13.0804 6.76865 13.0055 6.66143C12.6786 6.19132 12.6513 5.67447 12.7494 5.13151C12.7753 4.98717 12.8638 4.91844 12.9809 4.86483C13.2588 4.737 13.5543 4.68339 13.8567 4.68751C14.332 4.69438 14.4383 4.78648 14.584 5.24972V5.2511ZM21.6867 24.7456C21.7562 23.683 21.714 22.6191 21.7358 21.5552C21.7385 21.4411 21.7494 21.327 21.7548 21.2129C21.763 21.0328 21.8515 20.9627 22.0327 20.9641C22.9316 20.9737 23.8305 20.9641 24.7294 20.982C25.1652 20.9902 25.2034 21.0479 25.202 21.4796C25.202 22.0225 25.202 22.5641 25.202 23.1071H25.1734C25.1734 23.6803 25.1666 24.2549 25.1775 24.8281C25.1816 25.0274 25.1271 25.114 24.9201 25.1112C23.9394 25.0975 22.9575 25.092 21.9755 25.0837C21.7521 25.0824 21.6717 24.9738 21.6854 24.747L21.6867 24.7456ZM38.9811 30.6289C38.6325 33.9403 36.264 36.7912 33.0906 37.7135C30.9237 38.3431 28.7459 38.3156 26.6879 37.3712C23.4505 35.8853 21.7753 33.2805 21.6554 29.679C21.6404 29.2089 21.6527 28.7388 21.6527 28.2687C21.6608 28.2687 21.669 28.2687 21.6772 28.2687C21.6772 27.58 21.6786 26.89 21.6772 26.2013C21.6772 26.024 21.7289 25.9374 21.9292 25.9415C22.9111 25.9635 23.8945 25.9814 24.8778 25.9814C25.1271 25.9814 25.1325 26.0996 25.1339 26.2906C25.138 27.5745 25.0331 28.8611 25.1244 30.1436C25.2061 31.29 25.6923 32.2674 26.4768 33.0949C27.6999 34.3856 29.2471 34.721 30.9346 34.6069C32.7215 34.486 34.0658 33.6145 34.9756 32.0749C35.3392 31.4605 35.5612 30.7759 35.5844 30.0557C35.6211 28.8763 35.632 27.6955 35.6334 26.5147C35.6334 26.2233 35.6947 26.1092 36.0079 26.1216C36.9491 26.1546 37.8902 26.1573 38.8313 26.1697C38.973 26.171 39.1119 26.1642 39.0996 26.3717C39.0111 27.7903 39.1323 29.2158 38.9839 30.6302L38.9811 30.6289ZM39.1691 21.7462C39.1596 22.7909 39.1541 23.8342 39.1487 24.8789C39.146 25.2844 39.1351 25.3023 38.7346 25.2996C37.8139 25.2927 36.8932 25.2734 35.9725 25.2762C35.7233 25.2762 35.6484 25.1827 35.6538 24.9435C35.6661 24.38 35.7056 22.1036 35.6988 21.529C35.6947 21.2459 35.8241 21.1387 36.0965 21.1428C36.9341 21.1565 37.7731 21.1565 38.6107 21.1689C39.1405 21.1771 39.1732 21.2211 39.1691 21.7449V21.7462Z"/>
</mask>
<path d="M38.9035 20.34H35.0369C34.9783 20.4541 34.917 20.5682 34.8557 20.6823C34.8557 20.6823 34.8257 28.8969 34.7086 30.0941C34.5057 32.1863 32.7583 33.7602 30.6717 33.7616C29.7456 33.7616 28.8303 33.7286 28.0049 33.2117C27.7693 33.0646 27.546 32.8997 27.3321 32.7224C27.0829 32.5148 26.8377 32.3045 26.6443 32.0406C26.4632 31.7945 26.3229 31.5168 26.2317 31.2241C26.1962 31.1113 26.1649 30.9945 26.1377 30.8818C26.1336 30.868 26.1295 30.8543 26.1254 30.8405C26.0274 30.5079 25.9647 30.1642 25.9456 29.8178C25.9402 29.7189 25.9388 29.6213 25.9402 29.5223C25.9824 26.8267 26.0192 24.1312 26.0519 21.4356C26.0628 20.5737 25.6678 20.1599 24.8152 20.138C23.9258 20.1146 23.0351 20.1036 22.1457 20.0967C21.334 20.0912 20.924 20.505 20.9104 21.3215C20.875 23.5676 20.8355 25.8137 20.8055 28.0597C20.7919 29.0096 20.7429 29.9622 20.8763 30.9079C21.0588 32.2041 21.4661 33.422 22.1716 34.5313C22.241 34.6399 22.3446 34.7334 22.1457 34.853C21.3149 35.3533 20.465 35.7973 19.5021 35.976C19.0921 36.0516 18.7108 36.2001 18.3308 36.3692C17.0001 36.9575 15.6164 37.2668 14.1618 37.0166C13.5312 36.908 12.9101 36.7486 12.2727 36.6702C11.5168 36.5781 10.9693 36.1451 10.7364 35.4262C10.4667 34.5959 9.98867 33.899 9.53514 33.1774C7.61883 30.1381 6.28954 26.8212 5.07737 23.4549C3.49475 19.063 2.25671 14.5571 0.860683 10.1048C0.804841 9.92747 0.766706 9.75014 0.826633 9.55358C1.31967 7.94942 1.96933 6.42362 2.94587 5.0504C4.02729 3.5301 5.37292 2.2586 6.70494 0.974732C6.80028 0.882634 6.91469 0.848269 7.04543 0.856516C7.9852 0.916999 8.92497 0.967859 9.86337 1.03659C10.7323 1.09982 11.5876 1.24003 12.3994 1.58368C12.5615 1.65241 12.7249 1.71839 12.823 1.88196C13.143 2.41806 13.4536 2.96102 13.6497 3.55897C13.6796 3.65107 13.7573 3.75554 13.6429 3.84351C13.5325 3.92874 13.4181 3.88475 13.3282 3.81327C13.2247 3.72942 13.1335 3.6277 13.0477 3.52323C12.7644 3.17683 12.4838 2.82906 12.2073 2.47716C12.0466 2.27097 11.8437 2.15551 11.5917 2.08678C10.3019 1.73076 8.97809 1.56856 7.66105 1.36099C7.34371 1.31151 7.09038 1.47233 7.06587 1.71564C7.03863 1.98093 7.2116 2.16513 7.55482 2.20637C8.38699 2.30534 9.21371 2.43593 10.0363 2.59538C10.8004 2.74383 11.5863 2.80707 12.0711 3.59196C12.3898 4.10606 12.4307 4.07032 12.0711 4.57342C11.9431 4.75349 11.8709 4.76449 11.7279 4.58992C11.1913 3.93286 10.6002 3.36103 9.65635 3.45175C9.63728 3.45313 9.61685 3.44213 9.59642 3.43938C8.58992 3.31429 7.58478 3.19058 6.57828 3.06686C6.32767 3.03662 6.14789 3.13834 6.08524 3.38989C6.0185 3.65794 6.18466 3.79677 6.40122 3.89025C6.45706 3.91361 6.52243 3.91636 6.58372 3.92324C7.76456 4.06482 8.9454 4.20503 10.1276 4.34386C10.2652 4.36036 10.3905 4.39335 10.4912 4.49644C10.9053 4.92119 11.3152 5.34869 11.7375 5.76382C11.8873 5.91228 11.8641 6.02224 11.7334 6.15833C11.5304 6.37139 11.3003 6.54459 11.0428 6.68342C10.4531 7.00095 10.3537 6.9982 9.90423 6.52397C9.37987 5.97138 8.87321 5.43804 8.03423 5.37343C7.36822 5.32257 6.72537 5.0669 6.04983 5.03666C5.8142 5.02704 5.64668 5.13563 5.62761 5.39405C5.60855 5.64973 5.71614 5.80643 5.98173 5.85454C6.64365 5.97276 7.30421 6.09235 7.96205 6.23118C8.20993 6.28342 8.49186 6.27242 8.68798 6.47174C8.99443 6.78239 9.28589 7.1068 9.58689 7.42295C9.70674 7.54942 9.69721 7.66488 9.61413 7.81471C9.45341 8.10338 9.19736 8.27108 8.92905 8.43191C8.74927 8.53913 8.57766 8.53638 8.4115 8.40304C8.19222 8.22847 7.97158 8.05527 7.74958 7.88482C7.53575 7.72124 7.33962 7.7721 7.17074 7.95492C6.99777 8.14324 7.0754 8.33431 7.21841 8.48552C7.51259 8.7948 7.83266 9.07659 8.23036 9.24979C8.45372 9.34739 8.68798 9.41199 8.9236 9.32952C9.61685 9.09034 10.1862 8.69995 10.4354 7.9618C10.4885 7.80234 10.5702 7.72399 10.7296 7.68963C11.1695 7.59203 11.5699 7.40096 11.92 7.11092C12.048 7.00508 12.1556 6.89649 12.3054 7.08206C12.4539 7.26488 12.3272 7.36522 12.2087 7.46969C11.7075 7.90681 11.2335 8.37005 10.8031 8.8814C10.4327 9.32127 9.94509 9.59069 9.37442 9.70203C8.78741 9.8175 8.20039 9.76526 7.61066 9.75289C7.05497 9.7419 6.66408 10.1144 6.6382 10.6725C6.62867 10.8691 6.64093 11.0698 6.66408 11.2663C6.78121 12.2808 7.18163 13.1949 7.66922 14.0732C8.57766 15.7118 9.73943 17.1675 10.9039 18.6231C12.7617 20.9435 14.8278 23.1043 16.2402 25.7628C16.3518 25.9731 16.5275 26.0281 16.7373 25.969C16.9484 25.9099 17.0247 25.7339 17.0138 25.5319C17.0001 25.3037 16.9552 25.0769 16.9348 24.8473C16.7918 23.2432 16.9252 21.6541 17.2167 20.0775C17.5885 18.0692 18.2273 16.1461 19.005 14.2643C19.8303 12.2657 20.9553 10.5172 22.8172 9.33776C23.08 9.17144 23.1236 8.93089 22.9847 8.72195C22.8281 8.48827 22.6633 8.45665 22.3732 8.63535C21.1419 9.3955 20.145 10.4072 19.3904 11.6416C18.4411 13.1949 17.801 14.8953 17.2439 16.6231C16.5166 18.8775 16.0427 21.1799 16.0672 23.5662C16.0672 23.6047 16.0726 23.6514 16.0005 23.6817C15.8234 23.536 15.7267 23.3146 15.5891 23.1277C14.1917 21.2198 12.6323 19.4438 11.1573 17.5991C10.1303 16.3152 9.11973 15.0176 8.33659 13.5591C7.88986 12.7289 7.50987 11.8766 7.47174 10.9076C7.46356 10.6931 7.51532 10.601 7.74141 10.6106C8.0819 10.6258 8.42376 10.623 8.76562 10.6175C9.8947 10.5983 10.8372 10.1611 11.5658 9.29103C11.8818 8.91439 12.2387 8.58586 12.5873 8.24359C12.9442 7.89169 13.3065 7.62365 13.8363 7.73636C13.8853 7.74736 13.9398 7.73911 13.9902 7.73086C15.1206 7.52055 15.5197 7.24013 15.5496 5.99063C15.5592 5.5865 15.4693 5.18237 15.3154 4.80023C15.2051 4.52531 15.0757 4.26826 14.8101 4.10743C14.678 4.02771 14.6126 3.893 14.5772 3.74866C14.3674 2.90741 13.9507 2.16376 13.5176 1.4256C13.3936 1.21529 13.2384 1.04346 13.0082 0.940367C12.0725 0.523865 11.1 0.26819 10.0745 0.211832C9.05163 0.155473 8.02878 0.0991148 7.00866 0.00564237C6.67498 -0.0245987 6.43254 0.0551278 6.20373 0.287434C5.78016 0.716308 5.34568 1.13556 4.90849 1.54931C2.71842 3.61945 1.01867 6.00575 0.136109 8.94051C-0.0368624 9.51646 -0.0532061 10.0581 0.134747 10.6244C0.367646 11.3254 0.586925 12.032 0.800756 12.7399C2.06467 16.9283 3.28909 21.129 4.83767 25.2226C5.89048 28.0034 7.0645 30.7278 8.60354 33.2777C9.09521 34.0928 9.66997 34.8489 9.9914 35.7767C10.351 36.8159 11.1641 37.385 12.2591 37.5183C12.5873 37.5582 12.921 37.5843 13.237 37.6723C14.776 38.097 16.2837 37.9664 17.786 37.4798C18.3676 37.2915 18.896 36.9547 19.5007 36.8489C20.6012 36.6565 21.5859 36.185 22.5175 35.5925C22.7395 35.4509 22.8349 35.4784 22.9888 35.664C23.8468 36.6936 24.886 37.4936 26.0886 38.0709C28.0989 39.0359 30.2331 39.1981 32.3674 38.7912C36.7707 37.95 39.8487 34.1781 39.9059 29.712C39.94 27.0068 39.9672 24.3002 39.9972 21.5936C40.0054 20.8046 39.6444 20.3895 38.9008 20.3386L38.9035 20.34ZM14.584 5.2511C14.663 5.50127 14.7229 5.7542 14.712 5.97413C14.7243 6.61607 14.5867 6.77552 14.0079 6.87174C13.7682 6.91161 13.5339 6.87999 13.2969 6.86762C13.1566 6.86075 13.0804 6.76865 13.0055 6.66143C12.6786 6.19132 12.6513 5.67447 12.7494 5.13151C12.7753 4.98717 12.8638 4.91844 12.9809 4.86483C13.2588 4.737 13.5543 4.68339 13.8567 4.68751C14.332 4.69438 14.4383 4.78648 14.584 5.24972V5.2511ZM21.6867 24.7456C21.7562 23.683 21.714 22.6191 21.7358 21.5552C21.7385 21.4411 21.7494 21.327 21.7548 21.2129C21.763 21.0328 21.8515 20.9627 22.0327 20.9641C22.9316 20.9737 23.8305 20.9641 24.7294 20.982C25.1652 20.9902 25.2034 21.0479 25.202 21.4796C25.202 22.0225 25.202 22.5641 25.202 23.1071H25.1734C25.1734 23.6803 25.1666 24.2549 25.1775 24.8281C25.1816 25.0274 25.1271 25.114 24.9201 25.1112C23.9394 25.0975 22.9575 25.092 21.9755 25.0837C21.7521 25.0824 21.6717 24.9738 21.6854 24.747L21.6867 24.7456ZM38.9811 30.6289C38.6325 33.9403 36.264 36.7912 33.0906 37.7135C30.9237 38.3431 28.7459 38.3156 26.6879 37.3712C23.4505 35.8853 21.7753 33.2805 21.6554 29.679C21.6404 29.2089 21.6527 28.7388 21.6527 28.2687C21.6608 28.2687 21.669 28.2687 21.6772 28.2687C21.6772 27.58 21.6786 26.89 21.6772 26.2013C21.6772 26.024 21.7289 25.9374 21.9292 25.9415C22.9111 25.9635 23.8945 25.9814 24.8778 25.9814C25.1271 25.9814 25.1325 26.0996 25.1339 26.2906C25.138 27.5745 25.0331 28.8611 25.1244 30.1436C25.2061 31.29 25.6923 32.2674 26.4768 33.0949C27.6999 34.3856 29.2471 34.721 30.9346 34.6069C32.7215 34.486 34.0658 33.6145 34.9756 32.0749C35.3392 31.4605 35.5612 30.7759 35.5844 30.0557C35.6211 28.8763 35.632 27.6955 35.6334 26.5147C35.6334 26.2233 35.6947 26.1092 36.0079 26.1216C36.9491 26.1546 37.8902 26.1573 38.8313 26.1697C38.973 26.171 39.1119 26.1642 39.0996 26.3717C39.0111 27.7903 39.1323 29.2158 38.9839 30.6302L38.9811 30.6289ZM39.1691 21.7462C39.1596 22.7909 39.1541 23.8342 39.1487 24.8789C39.146 25.2844 39.1351 25.3023 38.7346 25.2996C37.8139 25.2927 36.8932 25.2734 35.9725 25.2762C35.7233 25.2762 35.6484 25.1827 35.6538 24.9435C35.6661 24.38 35.7056 22.1036 35.6988 21.529C35.6947 21.2459 35.8241 21.1387 36.0965 21.1428C36.9341 21.1565 37.7731 21.1565 38.6107 21.1689C39.1405 21.1771 39.1732 21.2211 39.1691 21.7449V21.7462Z" fill="#232323"/>
<path d="M38.9035 20.34H35.0369C34.9783 20.4541 34.917 20.5682 34.8557 20.6823C34.8557 20.6823 34.8257 28.8969 34.7086 30.0941C34.5057 32.1863 32.7583 33.7602 30.6717 33.7616C29.7456 33.7616 28.8303 33.7286 28.0049 33.2117C27.7693 33.0646 27.546 32.8997 27.3321 32.7224C27.0829 32.5148 26.8377 32.3045 26.6443 32.0406C26.4632 31.7945 26.3229 31.5168 26.2317 31.2241C26.1962 31.1113 26.1649 30.9945 26.1377 30.8818C26.1336 30.868 26.1295 30.8543 26.1254 30.8405C26.0274 30.5079 25.9647 30.1642 25.9456 29.8178C25.9402 29.7189 25.9388 29.6213 25.9402 29.5223C25.9824 26.8267 26.0192 24.1312 26.0519 21.4356C26.0628 20.5737 25.6678 20.1599 24.8152 20.138C23.9258 20.1146 23.0351 20.1036 22.1457 20.0967C21.334 20.0912 20.924 20.505 20.9104 21.3215C20.875 23.5676 20.8355 25.8137 20.8055 28.0597C20.7919 29.0096 20.7429 29.9622 20.8763 30.9079C21.0588 32.2041 21.4661 33.422 22.1716 34.5313C22.241 34.6399 22.3446 34.7334 22.1457 34.853C21.3149 35.3533 20.465 35.7973 19.5021 35.976C19.0921 36.0516 18.7108 36.2001 18.3308 36.3692C17.0001 36.9575 15.6164 37.2668 14.1618 37.0166C13.5312 36.908 12.9101 36.7486 12.2727 36.6702C11.5168 36.5781 10.9693 36.1451 10.7364 35.4262C10.4667 34.5959 9.98867 33.899 9.53514 33.1774C7.61883 30.1381 6.28954 26.8212 5.07737 23.4549C3.49475 19.063 2.25671 14.5571 0.860683 10.1048C0.804841 9.92747 0.766706 9.75014 0.826633 9.55358C1.31967 7.94942 1.96933 6.42362 2.94587 5.0504C4.02729 3.5301 5.37292 2.2586 6.70494 0.974732C6.80028 0.882634 6.91469 0.848269 7.04543 0.856516C7.9852 0.916999 8.92497 0.967859 9.86337 1.03659C10.7323 1.09982 11.5876 1.24003 12.3994 1.58368C12.5615 1.65241 12.7249 1.71839 12.823 1.88196C13.143 2.41806 13.4536 2.96102 13.6497 3.55897C13.6796 3.65107 13.7573 3.75554 13.6429 3.84351C13.5325 3.92874 13.4181 3.88475 13.3282 3.81327C13.2247 3.72942 13.1335 3.6277 13.0477 3.52323C12.7644 3.17683 12.4838 2.82906 12.2073 2.47716C12.0466 2.27097 11.8437 2.15551 11.5917 2.08678C10.3019 1.73076 8.97809 1.56856 7.66105 1.36099C7.34371 1.31151 7.09038 1.47233 7.06587 1.71564C7.03863 1.98093 7.2116 2.16513 7.55482 2.20637C8.38699 2.30534 9.21371 2.43593 10.0363 2.59538C10.8004 2.74383 11.5863 2.80707 12.0711 3.59196C12.3898 4.10606 12.4307 4.07032 12.0711 4.57342C11.9431 4.75349 11.8709 4.76449 11.7279 4.58992C11.1913 3.93286 10.6002 3.36103 9.65635 3.45175C9.63728 3.45313 9.61685 3.44213 9.59642 3.43938C8.58992 3.31429 7.58478 3.19058 6.57828 3.06686C6.32767 3.03662 6.14789 3.13834 6.08524 3.38989C6.0185 3.65794 6.18466 3.79677 6.40122 3.89025C6.45706 3.91361 6.52243 3.91636 6.58372 3.92324C7.76456 4.06482 8.9454 4.20503 10.1276 4.34386C10.2652 4.36036 10.3905 4.39335 10.4912 4.49644C10.9053 4.92119 11.3152 5.34869 11.7375 5.76382C11.8873 5.91228 11.8641 6.02224 11.7334 6.15833C11.5304 6.37139 11.3003 6.54459 11.0428 6.68342C10.4531 7.00095 10.3537 6.9982 9.90423 6.52397C9.37987 5.97138 8.87321 5.43804 8.03423 5.37343C7.36822 5.32257 6.72537 5.0669 6.04983 5.03666C5.8142 5.02704 5.64668 5.13563 5.62761 5.39405C5.60855 5.64973 5.71614 5.80643 5.98173 5.85454C6.64365 5.97276 7.30421 6.09235 7.96205 6.23118C8.20993 6.28342 8.49186 6.27242 8.68798 6.47174C8.99443 6.78239 9.28589 7.1068 9.58689 7.42295C9.70674 7.54942 9.69721 7.66488 9.61413 7.81471C9.45341 8.10338 9.19736 8.27108 8.92905 8.43191C8.74927 8.53913 8.57766 8.53638 8.4115 8.40304C8.19222 8.22847 7.97158 8.05527 7.74958 7.88482C7.53575 7.72124 7.33962 7.7721 7.17074 7.95492C6.99777 8.14324 7.0754 8.33431 7.21841 8.48552C7.51259 8.7948 7.83266 9.07659 8.23036 9.24979C8.45372 9.34739 8.68798 9.41199 8.9236 9.32952C9.61685 9.09034 10.1862 8.69995 10.4354 7.9618C10.4885 7.80234 10.5702 7.72399 10.7296 7.68963C11.1695 7.59203 11.5699 7.40096 11.92 7.11092C12.048 7.00508 12.1556 6.89649 12.3054 7.08206C12.4539 7.26488 12.3272 7.36522 12.2087 7.46969C11.7075 7.90681 11.2335 8.37005 10.8031 8.8814C10.4327 9.32127 9.94509 9.59069 9.37442 9.70203C8.78741 9.8175 8.20039 9.76526 7.61066 9.75289C7.05497 9.7419 6.66408 10.1144 6.6382 10.6725C6.62867 10.8691 6.64093 11.0698 6.66408 11.2663C6.78121 12.2808 7.18163 13.1949 7.66922 14.0732C8.57766 15.7118 9.73943 17.1675 10.9039 18.6231C12.7617 20.9435 14.8278 23.1043 16.2402 25.7628C16.3518 25.9731 16.5275 26.0281 16.7373 25.969C16.9484 25.9099 17.0247 25.7339 17.0138 25.5319C17.0001 25.3037 16.9552 25.0769 16.9348 24.8473C16.7918 23.2432 16.9252 21.6541 17.2167 20.0775C17.5885 18.0692 18.2273 16.1461 19.005 14.2643C19.8303 12.2657 20.9553 10.5172 22.8172 9.33776C23.08 9.17144 23.1236 8.93089 22.9847 8.72195C22.8281 8.48827 22.6633 8.45665 22.3732 8.63535C21.1419 9.3955 20.145 10.4072 19.3904 11.6416C18.4411 13.1949 17.801 14.8953 17.2439 16.6231C16.5166 18.8775 16.0427 21.1799 16.0672 23.5662C16.0672 23.6047 16.0726 23.6514 16.0005 23.6817C15.8234 23.536 15.7267 23.3146 15.5891 23.1277C14.1917 21.2198 12.6323 19.4438 11.1573 17.5991C10.1303 16.3152 9.11973 15.0176 8.33659 13.5591C7.88986 12.7289 7.50987 11.8766 7.47174 10.9076C7.46356 10.6931 7.51532 10.601 7.74141 10.6106C8.0819 10.6258 8.42376 10.623 8.76562 10.6175C9.8947 10.5983 10.8372 10.1611 11.5658 9.29103C11.8818 8.91439 12.2387 8.58586 12.5873 8.24359C12.9442 7.89169 13.3065 7.62365 13.8363 7.73636C13.8853 7.74736 13.9398 7.73911 13.9902 7.73086C15.1206 7.52055 15.5197 7.24013 15.5496 5.99063C15.5592 5.5865 15.4693 5.18237 15.3154 4.80023C15.2051 4.52531 15.0757 4.26826 14.8101 4.10743C14.678 4.02771 14.6126 3.893 14.5772 3.74866C14.3674 2.90741 13.9507 2.16376 13.5176 1.4256C13.3936 1.21529 13.2384 1.04346 13.0082 0.940367C12.0725 0.523865 11.1 0.26819 10.0745 0.211832C9.05163 0.155473 8.02878 0.0991148 7.00866 0.00564237C6.67498 -0.0245987 6.43254 0.0551278 6.20373 0.287434C5.78016 0.716308 5.34568 1.13556 4.90849 1.54931C2.71842 3.61945 1.01867 6.00575 0.136109 8.94051C-0.0368624 9.51646 -0.0532061 10.0581 0.134747 10.6244C0.367646 11.3254 0.586925 12.032 0.800756 12.7399C2.06467 16.9283 3.28909 21.129 4.83767 25.2226C5.89048 28.0034 7.0645 30.7278 8.60354 33.2777C9.09521 34.0928 9.66997 34.8489 9.9914 35.7767C10.351 36.8159 11.1641 37.385 12.2591 37.5183C12.5873 37.5582 12.921 37.5843 13.237 37.6723C14.776 38.097 16.2837 37.9664 17.786 37.4798C18.3676 37.2915 18.896 36.9547 19.5007 36.8489C20.6012 36.6565 21.5859 36.185 22.5175 35.5925C22.7395 35.4509 22.8349 35.4784 22.9888 35.664C23.8468 36.6936 24.886 37.4936 26.0886 38.0709C28.0989 39.0359 30.2331 39.1981 32.3674 38.7912C36.7707 37.95 39.8487 34.1781 39.9059 29.712C39.94 27.0068 39.9672 24.3002 39.9972 21.5936C40.0054 20.8046 39.6444 20.3895 38.9008 20.3386L38.9035 20.34ZM14.584 5.2511C14.663 5.50127 14.7229 5.7542 14.712 5.97413C14.7243 6.61607 14.5867 6.77552 14.0079 6.87174C13.7682 6.91161 13.5339 6.87999 13.2969 6.86762C13.1566 6.86075 13.0804 6.76865 13.0055 6.66143C12.6786 6.19132 12.6513 5.67447 12.7494 5.13151C12.7753 4.98717 12.8638 4.91844 12.9809 4.86483C13.2588 4.737 13.5543 4.68339 13.8567 4.68751C14.332 4.69438 14.4383 4.78648 14.584 5.24972V5.2511ZM21.6867 24.7456C21.7562 23.683 21.714 22.6191 21.7358 21.5552C21.7385 21.4411 21.7494 21.327 21.7548 21.2129C21.763 21.0328 21.8515 20.9627 22.0327 20.9641C22.9316 20.9737 23.8305 20.9641 24.7294 20.982C25.1652 20.9902 25.2034 21.0479 25.202 21.4796C25.202 22.0225 25.202 22.5641 25.202 23.1071H25.1734C25.1734 23.6803 25.1666 24.2549 25.1775 24.8281C25.1816 25.0274 25.1271 25.114 24.9201 25.1112C23.9394 25.0975 22.9575 25.092 21.9755 25.0837C21.7521 25.0824 21.6717 24.9738 21.6854 24.747L21.6867 24.7456ZM38.9811 30.6289C38.6325 33.9403 36.264 36.7912 33.0906 37.7135C30.9237 38.3431 28.7459 38.3156 26.6879 37.3712C23.4505 35.8853 21.7753 33.2805 21.6554 29.679C21.6404 29.2089 21.6527 28.7388 21.6527 28.2687C21.6608 28.2687 21.669 28.2687 21.6772 28.2687C21.6772 27.58 21.6786 26.89 21.6772 26.2013C21.6772 26.024 21.7289 25.9374 21.9292 25.9415C22.9111 25.9635 23.8945 25.9814 24.8778 25.9814C25.1271 25.9814 25.1325 26.0996 25.1339 26.2906C25.138 27.5745 25.0331 28.8611 25.1244 30.1436C25.2061 31.29 25.6923 32.2674 26.4768 33.0949C27.6999 34.3856 29.2471 34.721 30.9346 34.6069C32.7215 34.486 34.0658 33.6145 34.9756 32.0749C35.3392 31.4605 35.5612 30.7759 35.5844 30.0557C35.6211 28.8763 35.632 27.6955 35.6334 26.5147C35.6334 26.2233 35.6947 26.1092 36.0079 26.1216C36.9491 26.1546 37.8902 26.1573 38.8313 26.1697C38.973 26.171 39.1119 26.1642 39.0996 26.3717C39.0111 27.7903 39.1323 29.2158 38.9839 30.6302L38.9811 30.6289ZM39.1691 21.7462C39.1596 22.7909 39.1541 23.8342 39.1487 24.8789C39.146 25.2844 39.1351 25.3023 38.7346 25.2996C37.8139 25.2927 36.8932 25.2734 35.9725 25.2762C35.7233 25.2762 35.6484 25.1827 35.6538 24.9435C35.6661 24.38 35.7056 22.1036 35.6988 21.529C35.6947 21.2459 35.8241 21.1387 36.0965 21.1428C36.9341 21.1565 37.7731 21.1565 38.6107 21.1689C39.1405 21.1771 39.1732 21.2211 39.1691 21.7449V21.7462Z" stroke="#232323" stroke-width="0.2" mask="url(#path-1-outside-1_4_655)"/>
<path d="M23.3721 27.0405C23.533 27.0453 23.6565 27.1235 23.7363 27.2593C23.8145 27.3922 23.8502 27.5785 23.8467 27.8022C23.8316 28.7757 23.7545 29.7409 23.9385 30.6978C24.0248 31.1468 24.1832 31.5717 24.335 32.0063C24.4035 32.2028 24.3874 32.3818 24.2949 32.5103C24.2022 32.6391 24.0404 32.7059 23.8438 32.6948C23.7179 32.6878 23.627 32.6403 23.5586 32.5679C23.4921 32.4975 23.4484 32.4056 23.4102 32.3159C22.9865 31.3017 22.7974 30.2452 22.8467 29.145V28.8149H22.8545V27.7681C22.8538 27.5444 22.897 27.3614 22.9844 27.2339C23.0737 27.1036 23.2069 27.0352 23.3721 27.0405Z" fill="#232323" stroke="#232323" stroke-width="0.1"/>
<path d="M37.8181 30.1074H37.8171C37.706 31.579 37.1754 32.8288 36.3552 33.958C36.2566 34.0939 36.1383 34.1764 36.0115 34.2002C35.8843 34.2239 35.7561 34.1869 35.6404 34.1006C35.5277 34.0165 35.4557 33.9073 35.4421 33.7783C35.4287 33.65 35.4742 33.5108 35.5769 33.3682C36.0774 32.6733 36.4411 31.917 36.6697 31.0898C36.7165 30.9211 36.7456 30.7487 36.7712 30.5742C36.7967 30.4006 36.8191 30.2229 36.8513 30.0479C36.8801 29.8913 36.9456 29.7636 37.0378 29.6787C37.1308 29.5933 37.2491 29.5531 37.3767 29.5703L37.4783 29.5928C37.5742 29.6231 37.6524 29.6763 37.7097 29.748C37.7856 29.8432 37.8223 29.9669 37.8181 30.1025V30.1074Z" fill="#232323" stroke="#232323" stroke-width="0.1"/>
<path d="M24.7102 33.063C24.8349 33.0843 24.9518 33.169 25.0588 33.3091C25.4116 33.7701 25.8193 34.1743 26.2639 34.5464C26.3485 34.6177 26.4081 34.7046 26.4338 34.8022C26.4596 34.9003 26.4503 35.006 26.4026 35.1128L26.4016 35.1118C26.3156 35.3068 26.1515 35.4084 25.9407 35.4146L25.8889 35.4155V35.4028C25.784 35.3822 25.6857 35.3437 25.5979 35.271C25.1163 34.8705 24.6724 34.4289 24.3069 33.9116C24.2067 33.7699 24.1561 33.6352 24.1633 33.5093C24.1707 33.3818 24.237 33.2725 24.3489 33.1802L24.4348 33.1196C24.5228 33.0684 24.6155 33.0468 24.7102 33.063Z" fill="#232323" stroke="#232323" stroke-width="0.1"/>
</g>
<defs>
<clipPath id="clip0_4_655">
<rect width="40" height="39" fill="white"/>
</clipPath>
</defs>
</svg>
