<svg width="34" height="41" viewBox="0 0 34 41" fill="none" xmlns="http://www.w3.org/2000/svg">
<g clip-path="url(#clip0_4_668)">
<mask id="path-1-outside-1_4_668" maskUnits="userSpaceOnUse" x="7.22119" y="-0.502441" width="18" height="36" fill="black">
<rect fill="white" x="7.22119" y="-0.502441" width="18" height="36"/>
<path d="M12.2233 19.1098C12.4901 19.0836 12.8056 19.1817 13.1295 19.1207C13.3243 19.0836 13.464 18.9943 13.5403 18.8047C13.625 18.5934 13.7054 18.382 13.7986 18.175C14.0082 17.7109 14.4168 17.5018 14.889 17.6085C15.088 17.6543 15.3442 17.8068 15.4691 17.7284C15.6174 17.639 15.5009 17.3405 15.5284 17.1357C15.5348 17.0943 15.5433 17.0529 15.5517 17.0115C15.6597 16.5583 15.7338 16.1247 15.3972 15.7107C15.2362 15.5124 15.2511 15.2139 15.2299 14.9525C15.2066 14.6736 15.124 14.6147 14.8615 14.7128C14.3639 14.8958 13.9616 15.2335 13.5636 15.5778C13.0639 16.0114 12.543 16.408 11.893 16.5736C11.2578 16.7348 10.6903 16.5932 10.2923 16.0659C9.68673 15.2597 9.45171 14.3162 9.61898 13.3139C9.76719 12.438 10.4109 11.9282 11.3128 11.8432C11.5902 11.8171 11.8655 11.7778 12.1365 11.695C12.3779 11.6231 12.507 11.4684 12.5494 11.2157C12.5875 10.9913 12.6298 10.7668 12.6933 10.5489C12.8225 10.0979 13.1041 9.8822 13.5614 9.86041C13.8261 9.84734 14.0844 9.90181 14.3406 9.965C14.3935 9.97807 14.4528 10.026 14.4994 9.96282C14.5333 9.91489 14.4994 9.86477 14.4804 9.81901C14.2347 9.17189 14.1564 8.49425 14.1437 7.80572C14.1374 7.4266 13.9891 7.08233 13.9256 6.71628C13.9002 6.56376 13.7605 6.62041 13.6588 6.65745C13.2883 6.7969 12.9855 7.04529 12.7039 7.31983C12.2932 7.72293 11.9078 8.15435 11.4145 8.46157C11.0185 8.70778 10.5993 8.87774 10.1335 8.85813C9.54699 8.83416 9.14046 8.48554 8.83769 7.99964C8.46716 7.40263 8.23213 6.74025 8.22155 6.04083C8.20672 5.12134 8.6556 4.31733 9.75661 4.11033C10.0467 4.05586 10.341 4.0101 10.6184 3.90116C10.8195 3.82272 10.9804 3.70942 10.991 3.45231C10.9974 3.27582 11.0418 3.10151 11.063 2.92502C11.1604 2.17112 11.6156 1.82904 12.3546 1.94234C12.7378 2.00117 13.1168 2.06654 13.4916 2.16894C14.167 2.35197 14.8107 2.16459 15.448 1.95106C16.4918 1.60026 17.5717 1.3475 18.5541 0.815856C18.7997 0.682944 19.0728 0.606683 19.3481 0.545674C20.5105 0.288566 21.4972 1.08822 21.5289 2.31493C21.5522 3.17341 21.7131 3.99049 22.1789 4.72696C22.4203 5.11044 22.6935 5.53315 22.5537 5.99943C22.4351 6.39381 22.558 6.69885 22.6808 7.03222C22.9729 7.82533 22.9645 8.64024 22.8353 9.4595C22.812 9.60766 22.8099 9.74275 22.8819 9.87567C23.0661 10.2178 23.1445 10.586 23.1169 10.976C23.0471 11.9391 23.2376 12.8368 23.695 13.6844C23.9596 14.1746 24.0295 14.6954 23.6695 15.19C23.606 15.2771 23.6272 15.3621 23.6505 15.4558C23.9321 16.5583 23.93 17.663 23.6801 18.7699C23.659 18.8658 23.6928 18.9333 23.7373 19.0052C24.057 19.5194 24.129 20.062 23.966 20.6568C23.7182 21.5589 23.75 22.4566 24.0189 23.3564C24.1819 23.9033 24.1396 24.4328 23.6653 24.8359C23.5721 24.9165 23.6018 25.0233 23.6039 25.1192C23.623 25.9166 23.5764 26.7097 23.4112 27.492C23.3985 27.5486 23.3922 27.6118 23.3668 27.6619C23.2609 27.8689 23.3265 28.0323 23.443 28.2175C23.7924 28.7753 23.7839 29.3702 23.5383 29.965C23.2863 30.5686 23.0873 31.1852 23.1127 31.8519C23.1233 32.1308 23.155 32.4097 23.1953 32.6842C23.2927 33.3401 22.956 34.0722 22.2594 34.2639C21.62 34.4404 20.9784 34.4644 20.3284 34.3969C19.5281 34.3119 18.7235 34.2487 17.9316 34.0918C17.2117 33.9502 16.5045 33.7584 15.8545 33.3924C15.7169 33.3161 15.5856 33.229 15.4586 33.1353C14.7556 32.6167 14.5248 31.9238 14.7429 31.0632C14.8255 30.7363 14.8212 30.745 14.5036 30.732C13.9214 30.7102 13.3878 30.9128 12.8543 31.1111C12.4435 31.2636 12.0412 31.4227 11.5987 31.4619C10.4469 31.5687 9.77778 31.0762 9.61263 29.9018C9.51311 29.185 9.57875 28.4659 9.91752 27.7992C10.3346 26.9756 11.0291 26.6248 11.9226 26.7838C12.2614 26.8448 12.5981 26.9342 12.9453 26.9429C13.1909 26.9472 13.373 26.8601 13.4916 26.6313C13.5805 26.4592 13.6758 26.2914 13.7795 26.128C14.0675 25.6726 14.4571 25.5419 14.9525 25.7249C14.9906 25.7401 15.0287 25.7619 15.0669 25.7706C15.2235 25.8055 15.3654 26.0169 15.4988 25.9253C15.5983 25.8556 15.5962 25.6356 15.6449 25.483C15.719 25.2499 15.7889 25.0167 15.8778 24.788C15.9328 24.6463 15.9286 24.5396 15.8291 24.4176C15.503 24.0232 15.3802 23.5656 15.4564 23.047C15.52 22.6025 15.4607 22.5568 15.0245 22.6418C14.4253 22.7594 13.9023 23.0666 13.373 23.3564C12.958 23.5852 12.5303 23.7704 12.056 23.8358C11.2451 23.9491 10.6184 23.6157 10.3156 22.8357C10.0065 22.0339 9.95563 21.2015 10.1991 20.3735C10.4638 19.4671 11.1477 19.0379 12.2233 19.1032V19.1098ZM16.2886 7.95607C16.6273 7.9626 16.964 7.94299 17.2985 7.89724C18.2068 7.77086 19.0728 7.47671 19.9431 7.19564C20.4533 7.03222 20.9594 6.84919 21.4146 6.55504C22.1218 6.09748 22.0561 5.83601 21.7682 5.26514C21.6221 4.97099 21.4548 4.68992 21.313 4.39359C21.0165 3.77261 20.9297 3.09933 20.9128 2.4217C20.8831 1.30611 19.9833 0.959663 19.2719 1.23202C19.0178 1.32789 18.7574 1.41069 18.516 1.53707C18.0671 1.77021 17.5971 1.9467 17.1164 2.09486C16.5193 2.28007 15.918 2.45656 15.3252 2.65484C14.6032 2.89669 13.8833 2.9577 13.1443 2.73981C12.8543 2.65484 12.5472 2.61997 12.2466 2.58293C11.8591 2.53718 11.7236 2.67227 11.6961 3.06883C11.6855 3.2366 11.6558 3.40437 11.6347 3.57215C11.5754 4.05368 11.3001 4.34129 10.8661 4.50035C10.5845 4.60276 10.2965 4.65723 10.0043 4.70953C9.33314 4.83154 8.95626 5.16273 8.89697 5.78808C8.82287 6.56158 9.0473 7.25882 9.55123 7.8493C9.78625 8.1282 10.0869 8.22625 10.4384 8.18485C10.6755 8.15652 10.8703 8.03015 11.0672 7.90813C11.5013 7.63577 11.8189 7.22614 12.2021 6.89059C12.5981 6.54415 13.0046 6.21296 13.5064 6.03865C14.0315 5.85562 14.4465 6.09312 14.5735 6.64438C14.5926 6.72718 14.6095 6.80997 14.6222 6.89277C14.6984 7.36123 14.9568 7.66628 15.3908 7.82751C15.6851 7.93646 15.9879 7.93428 16.2907 7.96042L16.2886 7.95607ZM17.9994 16.2206C19.022 16.2315 20.087 15.9722 21.152 15.7173C21.7364 15.5778 22.3166 15.4188 22.8374 15.0941C23.2418 14.8435 23.3287 14.5951 23.1889 14.131C23.1656 14.0504 23.1445 13.9654 23.1042 13.8935C22.5685 12.9 22.4076 11.8258 22.4478 10.708C22.4542 10.5032 22.3843 10.3311 22.2785 10.1633C21.9609 9.67085 21.5035 9.6142 20.9911 9.70789C20.4364 9.80812 19.9409 10.1044 19.401 10.2395C18.516 10.4618 17.6225 10.6513 16.7353 10.8627C16.1128 11.0109 15.4967 11.0174 14.889 10.7952C14.5079 10.6557 14.1141 10.5729 13.7139 10.5228C13.4344 10.4858 13.3455 10.5446 13.2777 10.83C13.2375 10.9934 13.2121 11.1612 13.1782 11.3268C13.0829 11.8149 12.8225 12.1482 12.3482 12.3008C12.0221 12.4054 11.6897 12.4424 11.3552 12.4794C10.6861 12.5513 10.2605 12.998 10.2097 13.6865C10.1695 14.216 10.2838 14.715 10.5019 15.1856C10.8809 16.0049 11.4335 16.1835 12.2169 15.7608C12.579 15.5669 12.8733 15.2815 13.1888 15.0222C13.6334 14.6583 14.0929 14.3119 14.6349 14.1136C15.3548 13.8521 15.8609 14.1877 15.8926 14.9655C15.9159 15.5364 16.2123 15.872 16.7014 16.0572C17.0931 16.2053 17.5039 16.2293 17.9994 16.2206ZM20.0108 24.862C20.502 24.8076 20.9551 24.8294 21.4061 24.8076C21.8338 24.7858 22.2594 24.7444 22.6723 24.6202C23.3964 24.4045 23.5277 24.1822 23.3943 23.4262C23.3308 23.0688 23.2122 22.7246 23.1783 22.3607C23.1085 21.6308 23.2736 20.9313 23.4049 20.2254C23.5298 19.5543 23.0386 18.9616 22.378 18.9355C21.8381 18.9137 21.3151 19.0335 20.7858 19.0858C19.7694 19.1839 18.7489 19.1926 17.7283 19.2122C17.0042 19.2253 16.35 19.0422 15.7317 18.6697C15.4395 18.4932 15.1304 18.3646 14.8043 18.2666C14.582 18.199 14.4613 18.2796 14.3787 18.4823C14.2983 18.6849 14.2136 18.8875 14.1183 19.0836C13.932 19.4606 13.6377 19.6807 13.2248 19.7678C12.7928 19.8571 12.3715 19.7395 11.9459 19.7526C11.4187 19.7678 10.9889 20.0445 10.8322 20.5587C10.6162 21.2756 10.6311 21.9968 10.9444 22.6875C11.1244 23.0841 11.5013 23.2693 11.9205 23.2148C12.3355 23.1603 12.7145 23.01 13.0787 22.8074C13.716 22.4544 14.3533 22.1058 15.0838 21.9837C15.719 21.877 16.1128 22.206 16.1022 22.8596C16.1022 22.9621 16.1065 23.0645 16.0938 23.1647C16.0302 23.6833 16.2991 24.0123 16.6845 24.2759C16.9132 24.4328 17.1651 24.5287 17.4277 24.6049C18.2873 24.8512 19.1702 24.8163 20.0108 24.8599V24.862ZM20.7371 33.778C21.2685 33.7693 21.6306 33.7781 21.9863 33.6778C22.4584 33.5427 22.5939 33.327 22.5622 32.8259C22.5262 32.2376 22.4288 31.6493 22.541 31.0544C22.6384 30.5359 22.8332 30.0522 22.992 29.5554C23.2334 28.7993 22.8014 28.126 22.0329 28.0389C21.1161 27.9343 20.1908 28.0585 19.274 27.8994C18.6261 27.7883 17.9655 27.7621 17.3133 27.6728C16.6506 27.5813 16.0895 27.2457 15.5729 26.8252C15.3252 26.6248 15.0563 26.4679 14.7662 26.3415C14.5523 26.2478 14.4274 26.3023 14.3237 26.4984C14.2242 26.6836 14.1141 26.8623 14.0103 27.0453C13.7943 27.4244 13.4725 27.59 13.049 27.5965C12.6743 27.6031 12.3143 27.5268 11.9502 27.4549C11.2895 27.3242 10.8703 27.4789 10.5802 28.0236C10.2457 28.6533 10.1398 29.3331 10.2859 30.0391C10.3918 30.5489 10.6501 30.7712 11.1519 30.8278C11.4505 30.8627 11.7448 30.8235 12.0285 30.7298C12.4583 30.5882 12.8818 30.4226 13.3116 30.2831C13.8007 30.1241 14.2962 30.0129 14.8149 30.0979C15.2574 30.172 15.5115 30.5402 15.431 30.9956C15.4035 31.1525 15.3866 31.3159 15.3442 31.4684C15.2405 31.8476 15.3696 32.1504 15.6216 32.4141C15.935 32.7387 16.3182 32.9479 16.7332 33.1004C18.084 33.595 19.4984 33.6691 20.7371 33.778ZM23.2291 17.1488C23.2228 16.6803 23.2037 16.3426 23.1466 16.0092C23.0979 15.7282 23.0788 15.7238 22.8332 15.8284C22.5982 15.9286 22.361 16.0288 22.1175 16.1029C21.0991 16.4101 20.068 16.6564 19.0157 16.798C18.137 16.9156 17.2604 16.9505 16.4071 16.628C16.2716 16.5779 16.261 16.6564 16.2399 16.7609C16.1657 17.1292 16.1552 17.4996 16.1425 17.8722C16.1361 18.0726 16.2187 18.1859 16.3796 18.2731C16.7544 18.4736 17.1567 18.5542 17.5717 18.5498C18.4694 18.5389 19.3671 18.5171 20.2628 18.4888C20.4914 18.4823 20.7201 18.4409 20.9467 18.4038C21.6369 18.2905 22.3272 18.1576 23.0174 18.4104C23.1381 18.4539 23.1317 18.3668 23.1381 18.2883C23.1699 17.8656 23.2037 17.4451 23.227 17.151L23.2291 17.1488ZM22.9729 25.6987C22.9772 25.6225 22.9751 25.5462 22.9835 25.47C23.0026 25.2869 22.9264 25.2172 22.7527 25.2608C21.6793 25.531 20.5825 25.5026 19.4899 25.5026C18.5308 25.5026 17.5886 25.3872 16.6908 25.0124C16.5553 24.9557 16.4876 24.9841 16.4368 25.1366C16.3267 25.4809 16.225 25.8295 16.1276 26.1781C16.0789 26.3502 16.1298 26.4505 16.2589 26.5441C16.4601 26.6923 16.6781 26.8056 16.911 26.8971C17.3324 27.0627 17.7792 27.0714 18.2196 27.1216C19.1427 27.2283 20.0637 27.3787 20.9954 27.3394C21.5247 27.3177 22.0477 27.3503 22.5601 27.4876C22.7422 27.5377 22.8163 27.4702 22.8353 27.285C22.8883 26.7555 22.9708 26.2282 22.9751 25.6944L22.9729 25.6987ZM22.2975 8.60102C22.3102 8.08026 22.2298 7.63577 22.0964 7.19564C22.0371 7.00389 21.9715 6.94506 21.7872 7.07144C21.6052 7.19781 21.404 7.30458 21.1986 7.38956C20.0235 7.87981 18.8145 8.25893 17.5695 8.50079C16.7819 8.65331 15.9858 8.7056 15.2024 8.44632C14.8001 8.3134 14.798 8.30905 14.8636 8.72957C14.9356 9.18932 15.033 9.6447 15.3103 10.0325C15.4374 10.2112 15.5856 10.3463 15.8227 10.3245C15.9942 10.3093 16.1721 10.3245 16.3394 10.2853C17.6669 9.98025 19.0178 9.77544 20.2945 9.25033C20.7413 9.0673 21.2177 8.94092 21.7153 9.04333C21.891 9.07819 22.0921 9.26558 22.2298 9.13266C22.3674 8.99975 22.2912 8.74482 22.2975 8.60102Z"/>
</mask>
<path d="M12.2233 19.1098C12.4901 19.0836 12.8056 19.1817 13.1295 19.1207C13.3243 19.0836 13.464 18.9943 13.5403 18.8047C13.625 18.5934 13.7054 18.382 13.7986 18.175C14.0082 17.7109 14.4168 17.5018 14.889 17.6085C15.088 17.6543 15.3442 17.8068 15.4691 17.7284C15.6174 17.639 15.5009 17.3405 15.5284 17.1357C15.5348 17.0943 15.5433 17.0529 15.5517 17.0115C15.6597 16.5583 15.7338 16.1247 15.3972 15.7107C15.2362 15.5124 15.2511 15.2139 15.2299 14.9525C15.2066 14.6736 15.124 14.6147 14.8615 14.7128C14.3639 14.8958 13.9616 15.2335 13.5636 15.5778C13.0639 16.0114 12.543 16.408 11.893 16.5736C11.2578 16.7348 10.6903 16.5932 10.2923 16.0659C9.68673 15.2597 9.45171 14.3162 9.61898 13.3139C9.76719 12.438 10.4109 11.9282 11.3128 11.8432C11.5902 11.8171 11.8655 11.7778 12.1365 11.695C12.3779 11.6231 12.507 11.4684 12.5494 11.2157C12.5875 10.9913 12.6298 10.7668 12.6933 10.5489C12.8225 10.0979 13.1041 9.8822 13.5614 9.86041C13.8261 9.84734 14.0844 9.90181 14.3406 9.965C14.3935 9.97807 14.4528 10.026 14.4994 9.96282C14.5333 9.91489 14.4994 9.86477 14.4804 9.81901C14.2347 9.17189 14.1564 8.49425 14.1437 7.80572C14.1374 7.4266 13.9891 7.08233 13.9256 6.71628C13.9002 6.56376 13.7605 6.62041 13.6588 6.65745C13.2883 6.7969 12.9855 7.04529 12.7039 7.31983C12.2932 7.72293 11.9078 8.15435 11.4145 8.46157C11.0185 8.70778 10.5993 8.87774 10.1335 8.85813C9.54699 8.83416 9.14046 8.48554 8.83769 7.99964C8.46716 7.40263 8.23213 6.74025 8.22155 6.04083C8.20672 5.12134 8.6556 4.31733 9.75661 4.11033C10.0467 4.05586 10.341 4.0101 10.6184 3.90116C10.8195 3.82272 10.9804 3.70942 10.991 3.45231C10.9974 3.27582 11.0418 3.10151 11.063 2.92502C11.1604 2.17112 11.6156 1.82904 12.3546 1.94234C12.7378 2.00117 13.1168 2.06654 13.4916 2.16894C14.167 2.35197 14.8107 2.16459 15.448 1.95106C16.4918 1.60026 17.5717 1.3475 18.5541 0.815856C18.7997 0.682944 19.0728 0.606683 19.3481 0.545674C20.5105 0.288566 21.4972 1.08822 21.5289 2.31493C21.5522 3.17341 21.7131 3.99049 22.1789 4.72696C22.4203 5.11044 22.6935 5.53315 22.5537 5.99943C22.4351 6.39381 22.558 6.69885 22.6808 7.03222C22.9729 7.82533 22.9645 8.64024 22.8353 9.4595C22.812 9.60766 22.8099 9.74275 22.8819 9.87567C23.0661 10.2178 23.1445 10.586 23.1169 10.976C23.0471 11.9391 23.2376 12.8368 23.695 13.6844C23.9596 14.1746 24.0295 14.6954 23.6695 15.19C23.606 15.2771 23.6272 15.3621 23.6505 15.4558C23.9321 16.5583 23.93 17.663 23.6801 18.7699C23.659 18.8658 23.6928 18.9333 23.7373 19.0052C24.057 19.5194 24.129 20.062 23.966 20.6568C23.7182 21.5589 23.75 22.4566 24.0189 23.3564C24.1819 23.9033 24.1396 24.4328 23.6653 24.8359C23.5721 24.9165 23.6018 25.0233 23.6039 25.1192C23.623 25.9166 23.5764 26.7097 23.4112 27.492C23.3985 27.5486 23.3922 27.6118 23.3668 27.6619C23.2609 27.8689 23.3265 28.0323 23.443 28.2175C23.7924 28.7753 23.7839 29.3702 23.5383 29.965C23.2863 30.5686 23.0873 31.1852 23.1127 31.8519C23.1233 32.1308 23.155 32.4097 23.1953 32.6842C23.2927 33.3401 22.956 34.0722 22.2594 34.2639C21.62 34.4404 20.9784 34.4644 20.3284 34.3969C19.5281 34.3119 18.7235 34.2487 17.9316 34.0918C17.2117 33.9502 16.5045 33.7584 15.8545 33.3924C15.7169 33.3161 15.5856 33.229 15.4586 33.1353C14.7556 32.6167 14.5248 31.9238 14.7429 31.0632C14.8255 30.7363 14.8212 30.745 14.5036 30.732C13.9214 30.7102 13.3878 30.9128 12.8543 31.1111C12.4435 31.2636 12.0412 31.4227 11.5987 31.4619C10.4469 31.5687 9.77778 31.0762 9.61263 29.9018C9.51311 29.185 9.57875 28.4659 9.91752 27.7992C10.3346 26.9756 11.0291 26.6248 11.9226 26.7838C12.2614 26.8448 12.5981 26.9342 12.9453 26.9429C13.1909 26.9472 13.373 26.8601 13.4916 26.6313C13.5805 26.4592 13.6758 26.2914 13.7795 26.128C14.0675 25.6726 14.4571 25.5419 14.9525 25.7249C14.9906 25.7401 15.0287 25.7619 15.0669 25.7706C15.2235 25.8055 15.3654 26.0169 15.4988 25.9253C15.5983 25.8556 15.5962 25.6356 15.6449 25.483C15.719 25.2499 15.7889 25.0167 15.8778 24.788C15.9328 24.6463 15.9286 24.5396 15.8291 24.4176C15.503 24.0232 15.3802 23.5656 15.4564 23.047C15.52 22.6025 15.4607 22.5568 15.0245 22.6418C14.4253 22.7594 13.9023 23.0666 13.373 23.3564C12.958 23.5852 12.5303 23.7704 12.056 23.8358C11.2451 23.9491 10.6184 23.6157 10.3156 22.8357C10.0065 22.0339 9.95563 21.2015 10.1991 20.3735C10.4638 19.4671 11.1477 19.0379 12.2233 19.1032V19.1098ZM16.2886 7.95607C16.6273 7.9626 16.964 7.94299 17.2985 7.89724C18.2068 7.77086 19.0728 7.47671 19.9431 7.19564C20.4533 7.03222 20.9594 6.84919 21.4146 6.55504C22.1218 6.09748 22.0561 5.83601 21.7682 5.26514C21.6221 4.97099 21.4548 4.68992 21.313 4.39359C21.0165 3.77261 20.9297 3.09933 20.9128 2.4217C20.8831 1.30611 19.9833 0.959663 19.2719 1.23202C19.0178 1.32789 18.7574 1.41069 18.516 1.53707C18.0671 1.77021 17.5971 1.9467 17.1164 2.09486C16.5193 2.28007 15.918 2.45656 15.3252 2.65484C14.6032 2.89669 13.8833 2.9577 13.1443 2.73981C12.8543 2.65484 12.5472 2.61997 12.2466 2.58293C11.8591 2.53718 11.7236 2.67227 11.6961 3.06883C11.6855 3.2366 11.6558 3.40437 11.6347 3.57215C11.5754 4.05368 11.3001 4.34129 10.8661 4.50035C10.5845 4.60276 10.2965 4.65723 10.0043 4.70953C9.33314 4.83154 8.95626 5.16273 8.89697 5.78808C8.82287 6.56158 9.0473 7.25882 9.55123 7.8493C9.78625 8.1282 10.0869 8.22625 10.4384 8.18485C10.6755 8.15652 10.8703 8.03015 11.0672 7.90813C11.5013 7.63577 11.8189 7.22614 12.2021 6.89059C12.5981 6.54415 13.0046 6.21296 13.5064 6.03865C14.0315 5.85562 14.4465 6.09312 14.5735 6.64438C14.5926 6.72718 14.6095 6.80997 14.6222 6.89277C14.6984 7.36123 14.9568 7.66628 15.3908 7.82751C15.6851 7.93646 15.9879 7.93428 16.2907 7.96042L16.2886 7.95607ZM17.9994 16.2206C19.022 16.2315 20.087 15.9722 21.152 15.7173C21.7364 15.5778 22.3166 15.4188 22.8374 15.0941C23.2418 14.8435 23.3287 14.5951 23.1889 14.131C23.1656 14.0504 23.1445 13.9654 23.1042 13.8935C22.5685 12.9 22.4076 11.8258 22.4478 10.708C22.4542 10.5032 22.3843 10.3311 22.2785 10.1633C21.9609 9.67085 21.5035 9.6142 20.9911 9.70789C20.4364 9.80812 19.9409 10.1044 19.401 10.2395C18.516 10.4618 17.6225 10.6513 16.7353 10.8627C16.1128 11.0109 15.4967 11.0174 14.889 10.7952C14.5079 10.6557 14.1141 10.5729 13.7139 10.5228C13.4344 10.4858 13.3455 10.5446 13.2777 10.83C13.2375 10.9934 13.2121 11.1612 13.1782 11.3268C13.0829 11.8149 12.8225 12.1482 12.3482 12.3008C12.0221 12.4054 11.6897 12.4424 11.3552 12.4794C10.6861 12.5513 10.2605 12.998 10.2097 13.6865C10.1695 14.216 10.2838 14.715 10.5019 15.1856C10.8809 16.0049 11.4335 16.1835 12.2169 15.7608C12.579 15.5669 12.8733 15.2815 13.1888 15.0222C13.6334 14.6583 14.0929 14.3119 14.6349 14.1136C15.3548 13.8521 15.8609 14.1877 15.8926 14.9655C15.9159 15.5364 16.2123 15.872 16.7014 16.0572C17.0931 16.2053 17.5039 16.2293 17.9994 16.2206ZM20.0108 24.862C20.502 24.8076 20.9551 24.8294 21.4061 24.8076C21.8338 24.7858 22.2594 24.7444 22.6723 24.6202C23.3964 24.4045 23.5277 24.1822 23.3943 23.4262C23.3308 23.0688 23.2122 22.7246 23.1783 22.3607C23.1085 21.6308 23.2736 20.9313 23.4049 20.2254C23.5298 19.5543 23.0386 18.9616 22.378 18.9355C21.8381 18.9137 21.3151 19.0335 20.7858 19.0858C19.7694 19.1839 18.7489 19.1926 17.7283 19.2122C17.0042 19.2253 16.35 19.0422 15.7317 18.6697C15.4395 18.4932 15.1304 18.3646 14.8043 18.2666C14.582 18.199 14.4613 18.2796 14.3787 18.4823C14.2983 18.6849 14.2136 18.8875 14.1183 19.0836C13.932 19.4606 13.6377 19.6807 13.2248 19.7678C12.7928 19.8571 12.3715 19.7395 11.9459 19.7526C11.4187 19.7678 10.9889 20.0445 10.8322 20.5587C10.6162 21.2756 10.6311 21.9968 10.9444 22.6875C11.1244 23.0841 11.5013 23.2693 11.9205 23.2148C12.3355 23.1603 12.7145 23.01 13.0787 22.8074C13.716 22.4544 14.3533 22.1058 15.0838 21.9837C15.719 21.877 16.1128 22.206 16.1022 22.8596C16.1022 22.9621 16.1065 23.0645 16.0938 23.1647C16.0302 23.6833 16.2991 24.0123 16.6845 24.2759C16.9132 24.4328 17.1651 24.5287 17.4277 24.6049C18.2873 24.8512 19.1702 24.8163 20.0108 24.8599V24.862ZM20.7371 33.778C21.2685 33.7693 21.6306 33.7781 21.9863 33.6778C22.4584 33.5427 22.5939 33.327 22.5622 32.8259C22.5262 32.2376 22.4288 31.6493 22.541 31.0544C22.6384 30.5359 22.8332 30.0522 22.992 29.5554C23.2334 28.7993 22.8014 28.126 22.0329 28.0389C21.1161 27.9343 20.1908 28.0585 19.274 27.8994C18.6261 27.7883 17.9655 27.7621 17.3133 27.6728C16.6506 27.5813 16.0895 27.2457 15.5729 26.8252C15.3252 26.6248 15.0563 26.4679 14.7662 26.3415C14.5523 26.2478 14.4274 26.3023 14.3237 26.4984C14.2242 26.6836 14.1141 26.8623 14.0103 27.0453C13.7943 27.4244 13.4725 27.59 13.049 27.5965C12.6743 27.6031 12.3143 27.5268 11.9502 27.4549C11.2895 27.3242 10.8703 27.4789 10.5802 28.0236C10.2457 28.6533 10.1398 29.3331 10.2859 30.0391C10.3918 30.5489 10.6501 30.7712 11.1519 30.8278C11.4505 30.8627 11.7448 30.8235 12.0285 30.7298C12.4583 30.5882 12.8818 30.4226 13.3116 30.2831C13.8007 30.1241 14.2962 30.0129 14.8149 30.0979C15.2574 30.172 15.5115 30.5402 15.431 30.9956C15.4035 31.1525 15.3866 31.3159 15.3442 31.4684C15.2405 31.8476 15.3696 32.1504 15.6216 32.4141C15.935 32.7387 16.3182 32.9479 16.7332 33.1004C18.084 33.595 19.4984 33.6691 20.7371 33.778ZM23.2291 17.1488C23.2228 16.6803 23.2037 16.3426 23.1466 16.0092C23.0979 15.7282 23.0788 15.7238 22.8332 15.8284C22.5982 15.9286 22.361 16.0288 22.1175 16.1029C21.0991 16.4101 20.068 16.6564 19.0157 16.798C18.137 16.9156 17.2604 16.9505 16.4071 16.628C16.2716 16.5779 16.261 16.6564 16.2399 16.7609C16.1657 17.1292 16.1552 17.4996 16.1425 17.8722C16.1361 18.0726 16.2187 18.1859 16.3796 18.2731C16.7544 18.4736 17.1567 18.5542 17.5717 18.5498C18.4694 18.5389 19.3671 18.5171 20.2628 18.4888C20.4914 18.4823 20.7201 18.4409 20.9467 18.4038C21.6369 18.2905 22.3272 18.1576 23.0174 18.4104C23.1381 18.4539 23.1317 18.3668 23.1381 18.2883C23.1699 17.8656 23.2037 17.4451 23.227 17.151L23.2291 17.1488ZM22.9729 25.6987C22.9772 25.6225 22.9751 25.5462 22.9835 25.47C23.0026 25.2869 22.9264 25.2172 22.7527 25.2608C21.6793 25.531 20.5825 25.5026 19.4899 25.5026C18.5308 25.5026 17.5886 25.3872 16.6908 25.0124C16.5553 24.9557 16.4876 24.9841 16.4368 25.1366C16.3267 25.4809 16.225 25.8295 16.1276 26.1781C16.0789 26.3502 16.1298 26.4505 16.2589 26.5441C16.4601 26.6923 16.6781 26.8056 16.911 26.8971C17.3324 27.0627 17.7792 27.0714 18.2196 27.1216C19.1427 27.2283 20.0637 27.3787 20.9954 27.3394C21.5247 27.3177 22.0477 27.3503 22.5601 27.4876C22.7422 27.5377 22.8163 27.4702 22.8353 27.285C22.8883 26.7555 22.9708 26.2282 22.9751 25.6944L22.9729 25.6987ZM22.2975 8.60102C22.3102 8.08026 22.2298 7.63577 22.0964 7.19564C22.0371 7.00389 21.9715 6.94506 21.7872 7.07144C21.6052 7.19781 21.404 7.30458 21.1986 7.38956C20.0235 7.87981 18.8145 8.25893 17.5695 8.50079C16.7819 8.65331 15.9858 8.7056 15.2024 8.44632C14.8001 8.3134 14.798 8.30905 14.8636 8.72957C14.9356 9.18932 15.033 9.6447 15.3103 10.0325C15.4374 10.2112 15.5856 10.3463 15.8227 10.3245C15.9942 10.3093 16.1721 10.3245 16.3394 10.2853C17.6669 9.98025 19.0178 9.77544 20.2945 9.25033C20.7413 9.0673 21.2177 8.94092 21.7153 9.04333C21.891 9.07819 22.0921 9.26558 22.2298 9.13266C22.3674 8.99975 22.2912 8.74482 22.2975 8.60102Z" fill="white"/>
<path d="M12.2233 19.1098C12.4901 19.0836 12.8056 19.1817 13.1295 19.1207C13.3243 19.0836 13.464 18.9943 13.5403 18.8047C13.625 18.5934 13.7054 18.382 13.7986 18.175C14.0082 17.7109 14.4168 17.5018 14.889 17.6085C15.088 17.6543 15.3442 17.8068 15.4691 17.7284C15.6174 17.639 15.5009 17.3405 15.5284 17.1357C15.5348 17.0943 15.5433 17.0529 15.5517 17.0115C15.6597 16.5583 15.7338 16.1247 15.3972 15.7107C15.2362 15.5124 15.2511 15.2139 15.2299 14.9525C15.2066 14.6736 15.124 14.6147 14.8615 14.7128C14.3639 14.8958 13.9616 15.2335 13.5636 15.5778C13.0639 16.0114 12.543 16.408 11.893 16.5736C11.2578 16.7348 10.6903 16.5932 10.2923 16.0659C9.68673 15.2597 9.45171 14.3162 9.61898 13.3139C9.76719 12.438 10.4109 11.9282 11.3128 11.8432C11.5902 11.8171 11.8655 11.7778 12.1365 11.695C12.3779 11.6231 12.507 11.4684 12.5494 11.2157C12.5875 10.9913 12.6298 10.7668 12.6933 10.5489C12.8225 10.0979 13.1041 9.8822 13.5614 9.86041C13.8261 9.84734 14.0844 9.90181 14.3406 9.965C14.3935 9.97807 14.4528 10.026 14.4994 9.96282C14.5333 9.91489 14.4994 9.86477 14.4804 9.81901C14.2347 9.17189 14.1564 8.49425 14.1437 7.80572C14.1374 7.4266 13.9891 7.08233 13.9256 6.71628C13.9002 6.56376 13.7605 6.62041 13.6588 6.65745C13.2883 6.7969 12.9855 7.04529 12.7039 7.31983C12.2932 7.72293 11.9078 8.15435 11.4145 8.46157C11.0185 8.70778 10.5993 8.87774 10.1335 8.85813C9.54699 8.83416 9.14046 8.48554 8.83769 7.99964C8.46716 7.40263 8.23213 6.74025 8.22155 6.04083C8.20672 5.12134 8.6556 4.31733 9.75661 4.11033C10.0467 4.05586 10.341 4.0101 10.6184 3.90116C10.8195 3.82272 10.9804 3.70942 10.991 3.45231C10.9974 3.27582 11.0418 3.10151 11.063 2.92502C11.1604 2.17112 11.6156 1.82904 12.3546 1.94234C12.7378 2.00117 13.1168 2.06654 13.4916 2.16894C14.167 2.35197 14.8107 2.16459 15.448 1.95106C16.4918 1.60026 17.5717 1.3475 18.5541 0.815856C18.7997 0.682944 19.0728 0.606683 19.3481 0.545674C20.5105 0.288566 21.4972 1.08822 21.5289 2.31493C21.5522 3.17341 21.7131 3.99049 22.1789 4.72696C22.4203 5.11044 22.6935 5.53315 22.5537 5.99943C22.4351 6.39381 22.558 6.69885 22.6808 7.03222C22.9729 7.82533 22.9645 8.64024 22.8353 9.4595C22.812 9.60766 22.8099 9.74275 22.8819 9.87567C23.0661 10.2178 23.1445 10.586 23.1169 10.976C23.0471 11.9391 23.2376 12.8368 23.695 13.6844C23.9596 14.1746 24.0295 14.6954 23.6695 15.19C23.606 15.2771 23.6272 15.3621 23.6505 15.4558C23.9321 16.5583 23.93 17.663 23.6801 18.7699C23.659 18.8658 23.6928 18.9333 23.7373 19.0052C24.057 19.5194 24.129 20.062 23.966 20.6568C23.7182 21.5589 23.75 22.4566 24.0189 23.3564C24.1819 23.9033 24.1396 24.4328 23.6653 24.8359C23.5721 24.9165 23.6018 25.0233 23.6039 25.1192C23.623 25.9166 23.5764 26.7097 23.4112 27.492C23.3985 27.5486 23.3922 27.6118 23.3668 27.6619C23.2609 27.8689 23.3265 28.0323 23.443 28.2175C23.7924 28.7753 23.7839 29.3702 23.5383 29.965C23.2863 30.5686 23.0873 31.1852 23.1127 31.8519C23.1233 32.1308 23.155 32.4097 23.1953 32.6842C23.2927 33.3401 22.956 34.0722 22.2594 34.2639C21.62 34.4404 20.9784 34.4644 20.3284 34.3969C19.5281 34.3119 18.7235 34.2487 17.9316 34.0918C17.2117 33.9502 16.5045 33.7584 15.8545 33.3924C15.7169 33.3161 15.5856 33.229 15.4586 33.1353C14.7556 32.6167 14.5248 31.9238 14.7429 31.0632C14.8255 30.7363 14.8212 30.745 14.5036 30.732C13.9214 30.7102 13.3878 30.9128 12.8543 31.1111C12.4435 31.2636 12.0412 31.4227 11.5987 31.4619C10.4469 31.5687 9.77778 31.0762 9.61263 29.9018C9.51311 29.185 9.57875 28.4659 9.91752 27.7992C10.3346 26.9756 11.0291 26.6248 11.9226 26.7838C12.2614 26.8448 12.5981 26.9342 12.9453 26.9429C13.1909 26.9472 13.373 26.8601 13.4916 26.6313C13.5805 26.4592 13.6758 26.2914 13.7795 26.128C14.0675 25.6726 14.4571 25.5419 14.9525 25.7249C14.9906 25.7401 15.0287 25.7619 15.0669 25.7706C15.2235 25.8055 15.3654 26.0169 15.4988 25.9253C15.5983 25.8556 15.5962 25.6356 15.6449 25.483C15.719 25.2499 15.7889 25.0167 15.8778 24.788C15.9328 24.6463 15.9286 24.5396 15.8291 24.4176C15.503 24.0232 15.3802 23.5656 15.4564 23.047C15.52 22.6025 15.4607 22.5568 15.0245 22.6418C14.4253 22.7594 13.9023 23.0666 13.373 23.3564C12.958 23.5852 12.5303 23.7704 12.056 23.8358C11.2451 23.9491 10.6184 23.6157 10.3156 22.8357C10.0065 22.0339 9.95563 21.2015 10.1991 20.3735C10.4638 19.4671 11.1477 19.0379 12.2233 19.1032V19.1098ZM16.2886 7.95607C16.6273 7.9626 16.964 7.94299 17.2985 7.89724C18.2068 7.77086 19.0728 7.47671 19.9431 7.19564C20.4533 7.03222 20.9594 6.84919 21.4146 6.55504C22.1218 6.09748 22.0561 5.83601 21.7682 5.26514C21.6221 4.97099 21.4548 4.68992 21.313 4.39359C21.0165 3.77261 20.9297 3.09933 20.9128 2.4217C20.8831 1.30611 19.9833 0.959663 19.2719 1.23202C19.0178 1.32789 18.7574 1.41069 18.516 1.53707C18.0671 1.77021 17.5971 1.9467 17.1164 2.09486C16.5193 2.28007 15.918 2.45656 15.3252 2.65484C14.6032 2.89669 13.8833 2.9577 13.1443 2.73981C12.8543 2.65484 12.5472 2.61997 12.2466 2.58293C11.8591 2.53718 11.7236 2.67227 11.6961 3.06883C11.6855 3.2366 11.6558 3.40437 11.6347 3.57215C11.5754 4.05368 11.3001 4.34129 10.8661 4.50035C10.5845 4.60276 10.2965 4.65723 10.0043 4.70953C9.33314 4.83154 8.95626 5.16273 8.89697 5.78808C8.82287 6.56158 9.0473 7.25882 9.55123 7.8493C9.78625 8.1282 10.0869 8.22625 10.4384 8.18485C10.6755 8.15652 10.8703 8.03015 11.0672 7.90813C11.5013 7.63577 11.8189 7.22614 12.2021 6.89059C12.5981 6.54415 13.0046 6.21296 13.5064 6.03865C14.0315 5.85562 14.4465 6.09312 14.5735 6.64438C14.5926 6.72718 14.6095 6.80997 14.6222 6.89277C14.6984 7.36123 14.9568 7.66628 15.3908 7.82751C15.6851 7.93646 15.9879 7.93428 16.2907 7.96042L16.2886 7.95607ZM17.9994 16.2206C19.022 16.2315 20.087 15.9722 21.152 15.7173C21.7364 15.5778 22.3166 15.4188 22.8374 15.0941C23.2418 14.8435 23.3287 14.5951 23.1889 14.131C23.1656 14.0504 23.1445 13.9654 23.1042 13.8935C22.5685 12.9 22.4076 11.8258 22.4478 10.708C22.4542 10.5032 22.3843 10.3311 22.2785 10.1633C21.9609 9.67085 21.5035 9.6142 20.9911 9.70789C20.4364 9.80812 19.9409 10.1044 19.401 10.2395C18.516 10.4618 17.6225 10.6513 16.7353 10.8627C16.1128 11.0109 15.4967 11.0174 14.889 10.7952C14.5079 10.6557 14.1141 10.5729 13.7139 10.5228C13.4344 10.4858 13.3455 10.5446 13.2777 10.83C13.2375 10.9934 13.2121 11.1612 13.1782 11.3268C13.0829 11.8149 12.8225 12.1482 12.3482 12.3008C12.0221 12.4054 11.6897 12.4424 11.3552 12.4794C10.6861 12.5513 10.2605 12.998 10.2097 13.6865C10.1695 14.216 10.2838 14.715 10.5019 15.1856C10.8809 16.0049 11.4335 16.1835 12.2169 15.7608C12.579 15.5669 12.8733 15.2815 13.1888 15.0222C13.6334 14.6583 14.0929 14.3119 14.6349 14.1136C15.3548 13.8521 15.8609 14.1877 15.8926 14.9655C15.9159 15.5364 16.2123 15.872 16.7014 16.0572C17.0931 16.2053 17.5039 16.2293 17.9994 16.2206ZM20.0108 24.862C20.502 24.8076 20.9551 24.8294 21.4061 24.8076C21.8338 24.7858 22.2594 24.7444 22.6723 24.6202C23.3964 24.4045 23.5277 24.1822 23.3943 23.4262C23.3308 23.0688 23.2122 22.7246 23.1783 22.3607C23.1085 21.6308 23.2736 20.9313 23.4049 20.2254C23.5298 19.5543 23.0386 18.9616 22.378 18.9355C21.8381 18.9137 21.3151 19.0335 20.7858 19.0858C19.7694 19.1839 18.7489 19.1926 17.7283 19.2122C17.0042 19.2253 16.35 19.0422 15.7317 18.6697C15.4395 18.4932 15.1304 18.3646 14.8043 18.2666C14.582 18.199 14.4613 18.2796 14.3787 18.4823C14.2983 18.6849 14.2136 18.8875 14.1183 19.0836C13.932 19.4606 13.6377 19.6807 13.2248 19.7678C12.7928 19.8571 12.3715 19.7395 11.9459 19.7526C11.4187 19.7678 10.9889 20.0445 10.8322 20.5587C10.6162 21.2756 10.6311 21.9968 10.9444 22.6875C11.1244 23.0841 11.5013 23.2693 11.9205 23.2148C12.3355 23.1603 12.7145 23.01 13.0787 22.8074C13.716 22.4544 14.3533 22.1058 15.0838 21.9837C15.719 21.877 16.1128 22.206 16.1022 22.8596C16.1022 22.9621 16.1065 23.0645 16.0938 23.1647C16.0302 23.6833 16.2991 24.0123 16.6845 24.2759C16.9132 24.4328 17.1651 24.5287 17.4277 24.6049C18.2873 24.8512 19.1702 24.8163 20.0108 24.8599V24.862ZM20.7371 33.778C21.2685 33.7693 21.6306 33.7781 21.9863 33.6778C22.4584 33.5427 22.5939 33.327 22.5622 32.8259C22.5262 32.2376 22.4288 31.6493 22.541 31.0544C22.6384 30.5359 22.8332 30.0522 22.992 29.5554C23.2334 28.7993 22.8014 28.126 22.0329 28.0389C21.1161 27.9343 20.1908 28.0585 19.274 27.8994C18.6261 27.7883 17.9655 27.7621 17.3133 27.6728C16.6506 27.5813 16.0895 27.2457 15.5729 26.8252C15.3252 26.6248 15.0563 26.4679 14.7662 26.3415C14.5523 26.2478 14.4274 26.3023 14.3237 26.4984C14.2242 26.6836 14.1141 26.8623 14.0103 27.0453C13.7943 27.4244 13.4725 27.59 13.049 27.5965C12.6743 27.6031 12.3143 27.5268 11.9502 27.4549C11.2895 27.3242 10.8703 27.4789 10.5802 28.0236C10.2457 28.6533 10.1398 29.3331 10.2859 30.0391C10.3918 30.5489 10.6501 30.7712 11.1519 30.8278C11.4505 30.8627 11.7448 30.8235 12.0285 30.7298C12.4583 30.5882 12.8818 30.4226 13.3116 30.2831C13.8007 30.1241 14.2962 30.0129 14.8149 30.0979C15.2574 30.172 15.5115 30.5402 15.431 30.9956C15.4035 31.1525 15.3866 31.3159 15.3442 31.4684C15.2405 31.8476 15.3696 32.1504 15.6216 32.4141C15.935 32.7387 16.3182 32.9479 16.7332 33.1004C18.084 33.595 19.4984 33.6691 20.7371 33.778ZM23.2291 17.1488C23.2228 16.6803 23.2037 16.3426 23.1466 16.0092C23.0979 15.7282 23.0788 15.7238 22.8332 15.8284C22.5982 15.9286 22.361 16.0288 22.1175 16.1029C21.0991 16.4101 20.068 16.6564 19.0157 16.798C18.137 16.9156 17.2604 16.9505 16.4071 16.628C16.2716 16.5779 16.261 16.6564 16.2399 16.7609C16.1657 17.1292 16.1552 17.4996 16.1425 17.8722C16.1361 18.0726 16.2187 18.1859 16.3796 18.2731C16.7544 18.4736 17.1567 18.5542 17.5717 18.5498C18.4694 18.5389 19.3671 18.5171 20.2628 18.4888C20.4914 18.4823 20.7201 18.4409 20.9467 18.4038C21.6369 18.2905 22.3272 18.1576 23.0174 18.4104C23.1381 18.4539 23.1317 18.3668 23.1381 18.2883C23.1699 17.8656 23.2037 17.4451 23.227 17.151L23.2291 17.1488ZM22.9729 25.6987C22.9772 25.6225 22.9751 25.5462 22.9835 25.47C23.0026 25.2869 22.9264 25.2172 22.7527 25.2608C21.6793 25.531 20.5825 25.5026 19.4899 25.5026C18.5308 25.5026 17.5886 25.3872 16.6908 25.0124C16.5553 24.9557 16.4876 24.9841 16.4368 25.1366C16.3267 25.4809 16.225 25.8295 16.1276 26.1781C16.0789 26.3502 16.1298 26.4505 16.2589 26.5441C16.4601 26.6923 16.6781 26.8056 16.911 26.8971C17.3324 27.0627 17.7792 27.0714 18.2196 27.1216C19.1427 27.2283 20.0637 27.3787 20.9954 27.3394C21.5247 27.3177 22.0477 27.3503 22.5601 27.4876C22.7422 27.5377 22.8163 27.4702 22.8353 27.285C22.8883 26.7555 22.9708 26.2282 22.9751 25.6944L22.9729 25.6987ZM22.2975 8.60102C22.3102 8.08026 22.2298 7.63577 22.0964 7.19564C22.0371 7.00389 21.9715 6.94506 21.7872 7.07144C21.6052 7.19781 21.404 7.30458 21.1986 7.38956C20.0235 7.87981 18.8145 8.25893 17.5695 8.50079C16.7819 8.65331 15.9858 8.7056 15.2024 8.44632C14.8001 8.3134 14.798 8.30905 14.8636 8.72957C14.9356 9.18932 15.033 9.6447 15.3103 10.0325C15.4374 10.2112 15.5856 10.3463 15.8227 10.3245C15.9942 10.3093 16.1721 10.3245 16.3394 10.2853C17.6669 9.98025 19.0178 9.77544 20.2945 9.25033C20.7413 9.0673 21.2177 8.94092 21.7153 9.04333C21.891 9.07819 22.0921 9.26558 22.2298 9.13266C22.3674 8.99975 22.2912 8.74482 22.2975 8.60102Z" stroke="white" stroke-width="0.4" mask="url(#path-1-outside-1_4_668)"/>
<path d="M27.1055 15.498C27.2673 15.4696 27.4338 15.5064 27.5996 15.5947L27.7764 15.7041C27.9433 15.8248 28.0822 15.9769 28.2012 16.1436H28.2021C28.5204 16.592 28.804 17.065 29.0518 17.5596L29.1934 17.8242C29.5343 18.4341 29.9582 18.9854 30.4072 19.5254C30.8913 20.1091 31.3507 20.7006 31.8398 21.2715C32.443 21.9773 32.7034 22.8261 32.8906 23.6973L33.4258 26.1445C33.6068 26.9601 33.7919 27.7745 33.9834 28.5869C34.3484 30.1341 33.8468 31.4273 32.7812 32.5039C31.4232 33.8776 30.2398 35.3911 29.3135 37.1025C28.9836 37.7117 28.7271 38.3525 28.583 39.0312L28.5283 39.3242C28.49 39.5671 28.4977 39.8102 28.5166 40.0605L28.5186 40.1562C28.5154 40.2497 28.4941 40.3358 28.4463 40.4082C28.3809 40.5071 28.2766 40.5636 28.1475 40.5889L28.1484 40.5898C28.0225 40.615 27.9065 40.5447 27.8301 40.458C27.7511 40.3684 27.6944 40.2413 27.6855 40.1055C27.6663 39.815 27.6622 39.5193 27.7061 39.2217C27.8889 37.989 28.4173 36.9056 29.0293 35.8691C29.864 34.4557 30.8793 33.1922 32.0254 32.0391C32.328 31.7364 32.6233 31.4437 32.8359 31.084C33.2777 30.3366 33.3474 29.5269 33.1611 28.6836C32.7785 26.9561 32.3672 25.2297 32.0029 23.4951C31.8552 22.79 31.4981 22.2293 31.0537 21.6836C30.7706 21.3356 30.4908 20.9835 30.2119 20.6328L29.3721 19.585C28.8827 18.9819 28.5084 18.3025 28.1445 17.6299C27.931 17.2334 27.6887 16.8593 27.3965 16.5244V16.5234C27.3777 16.5017 27.357 16.475 27.3418 16.4561C27.3246 16.4347 27.3097 16.4178 27.2959 16.4053C27.2705 16.3824 27.2611 16.384 27.25 16.3877H27.249C27.2282 16.3943 27.2122 16.4093 27.1992 16.4473C27.192 16.4684 27.1873 16.4918 27.1836 16.5176L27.1738 16.6045C27.1214 17.0732 27.2453 17.5189 27.3975 17.9756C27.7223 18.9483 28.2336 19.8252 28.7129 20.7393C29.0871 21.4529 29.4683 22.1671 29.835 22.8867C30.2568 23.7148 30.4092 24.6109 30.4307 25.5264C30.4733 27.3567 30.1409 29.1342 29.7168 30.8887C29.692 30.9929 29.6714 31.0987 29.6504 31.207L29.5811 31.5342C29.5454 31.6772 29.4763 31.7953 29.3809 31.8701C29.2832 31.9465 29.161 31.9745 29.0381 31.9375L29.0361 31.9365C28.9147 31.8982 28.8185 31.8306 28.7705 31.7168C28.7251 31.6088 28.7311 31.4776 28.7656 31.332C29.0684 30.051 29.3551 28.7707 29.4941 27.4639C29.574 26.7112 29.5934 25.9539 29.5576 25.1963V25.1953C29.5519 25.0639 29.5077 24.9244 29.457 24.7832V24.7822C29.4034 24.6319 29.3369 24.5672 29.2754 24.5469C29.2135 24.5265 29.1205 24.5393 28.9863 24.6279C28.758 24.7793 28.6138 25.0114 28.457 25.2656C27.9588 26.071 27.7458 26.9873 27.5205 27.917C27.329 28.7077 27.192 29.5111 27.1162 30.3252C27.0546 30.9954 26.7381 31.5557 26.4189 32.0908C26.1021 32.6239 25.736 33.1151 25.3145 33.5732C24.4997 34.4588 23.9827 35.5301 23.6084 36.6963C23.3152 37.6127 23.2542 38.5209 23.4385 39.4385L23.5332 39.833V39.834C23.5685 39.9648 23.5749 40.0925 23.5635 40.2217C23.5455 40.4283 23.3931 40.5153 23.2734 40.5713H23.2725C23.2277 40.5917 23.1827 40.6017 23.1377 40.5986C23.0926 40.5955 23.0539 40.5795 23.0215 40.5596C22.9619 40.5228 22.9144 40.464 22.8838 40.4277L22.8828 40.4268C22.8358 40.3695 22.7718 40.2825 22.7539 40.1855L22.5732 39.2646C22.524 38.985 22.4883 38.701 22.4834 38.4121H22.4766L22.4795 38.3105C22.5011 37.447 22.7384 36.6373 23.0078 35.8428C23.4396 34.5651 24.1966 33.5244 25.0664 32.5439C25.6632 31.8714 26.1763 31.1192 26.2871 30.1914C26.4465 28.8576 26.699 27.5434 27.0928 26.2598C27.3041 25.5743 27.5843 24.9097 28.042 24.3359C28.3259 23.9798 28.6953 23.7366 29.1641 23.7061L29.2568 23.6885C29.265 23.685 29.2697 23.6822 29.2715 23.6807C29.2724 23.6799 29.2723 23.6789 29.2725 23.6787H29.2734C29.2736 23.6782 29.2732 23.6765 29.2734 23.6748C29.2738 23.6713 29.2739 23.6654 29.2725 23.6562C29.2695 23.6369 29.261 23.6094 29.2432 23.5723C29.1018 23.277 28.9566 22.9856 28.8066 22.6943H28.8057C28.1572 21.4291 27.4289 20.186 26.8516 18.8711C26.5792 18.2509 26.3895 17.5983 26.3184 16.9199C26.2757 16.5019 26.3794 16.0909 26.6738 15.7598C26.7993 15.6177 26.9437 15.5265 27.1055 15.498Z" fill="white" stroke="white" stroke-width="0.2"/>
<path d="M6.21021 15.7466C6.44584 15.5518 6.69438 15.4672 6.92993 15.519C7.13538 15.5644 7.30964 15.7087 7.44458 15.9282L7.49927 16.0269L7.57056 16.187C7.71281 16.5626 7.69325 16.9488 7.62134 17.3286C7.38097 18.5743 6.81209 19.6761 6.22583 20.7563V20.7573C5.73316 21.6647 5.26832 22.5868 4.79126 23.5054C4.75313 23.5789 4.72912 23.6272 4.71704 23.6616C4.7159 23.6649 4.71492 23.6678 4.71411 23.6704C4.71761 23.6716 4.72188 23.6739 4.72681 23.6753C4.76278 23.6853 4.81571 23.6943 4.89575 23.7065H4.89478C5.42855 23.786 5.81045 24.107 6.0979 24.5337C6.6308 25.3263 6.91858 26.2252 7.1438 27.1304C7.405 28.1729 7.61108 29.2307 7.71118 30.3091C7.76159 30.8451 8.07389 31.2721 8.35474 31.7583C8.60757 32.1955 8.92792 32.5769 9.27173 32.9546C10.4624 34.266 11.1078 35.8468 11.4553 37.5757C11.6231 38.4096 11.4437 39.2 11.2903 39.9722V39.9731C11.2813 40.0163 11.2752 40.0573 11.2668 40.1069C11.2589 40.1541 11.2491 40.206 11.2317 40.2573C11.201 40.3484 11.1522 40.4404 11.0784 40.5063C11.0012 40.5753 10.8997 40.613 10.7795 40.5923C10.6726 40.5737 10.5744 40.5235 10.5081 40.439C10.441 40.3532 10.4133 40.2414 10.4299 40.1167C10.4553 39.9252 10.4841 39.7256 10.5344 39.5317C10.8261 38.395 10.6389 37.2989 10.2405 36.2114C9.88141 35.2311 9.37243 34.355 8.70532 33.5757L8.40942 33.2476C7.77215 32.574 7.30106 31.7658 7.01294 30.8853C6.92105 30.6038 6.87247 30.3097 6.83521 30.0181C6.79754 29.7232 6.77211 29.4358 6.72388 29.1519C6.53685 28.0504 6.32343 26.9664 5.89771 25.9487L5.70142 25.5161C5.55535 25.2155 5.38653 24.9397 5.14575 24.7329C4.93817 24.5544 4.79685 24.5247 4.71118 24.5562C4.62432 24.5881 4.53337 24.7052 4.48364 24.978C4.46712 25.0716 4.45324 25.1657 4.44263 25.2603L4.41919 25.5454C4.40892 25.725 4.41608 25.9022 4.41626 26.0913L4.41919 26.0923C4.44026 27.7342 4.75598 29.3309 5.14282 30.9233L5.20239 31.1704L5.26099 31.4165C5.28962 31.5344 5.28263 31.645 5.23071 31.7388C5.17909 31.8319 5.09094 31.8947 4.98657 31.9331L4.9856 31.9321C4.87581 31.9727 4.77396 31.9652 4.68677 31.9146C4.60427 31.8666 4.54554 31.7866 4.5022 31.7046C4.39844 31.5077 4.37081 31.2803 4.3313 31.0952C4.11415 30.0755 3.86057 29.0526 3.73071 28.0054C3.56343 26.6739 3.44077 25.331 3.76294 23.9849C3.8734 23.5213 4.05702 23.0887 4.26392 22.6694L4.76392 21.7036C4.93425 21.3841 5.10732 21.0662 5.27856 20.7485C5.62144 20.1125 5.95934 19.4766 6.26392 18.8237C6.51697 18.2792 6.70633 17.7125 6.802 17.1196L6.82446 16.9604C6.8415 16.8044 6.83934 16.656 6.79419 16.5122C6.77771 16.4593 6.7635 16.4254 6.75122 16.4058C6.75035 16.4044 6.74906 16.403 6.74829 16.4019L6.74634 16.4038C6.7275 16.4158 6.7004 16.4392 6.66333 16.48C6.37387 16.7971 6.1195 17.1469 5.93188 17.5288L5.93091 17.5278C5.24078 18.9438 4.2243 20.1081 3.26685 21.2974C2.86121 21.7992 2.43022 22.2449 2.21313 22.8433C1.97039 23.5108 1.85413 24.2097 1.6936 24.9146C1.4544 25.958 1.21807 27.0033 1.00024 28.0522C0.914365 28.4698 0.811957 28.8709 0.763916 29.2876C0.661708 30.1879 0.957126 30.9454 1.53638 31.603C1.71106 31.8011 1.89592 31.991 2.08325 32.1821C2.17672 32.2775 2.27118 32.3733 2.3645 32.4702L2.64087 32.7651L3.0979 33.2896C4.14532 34.5263 5.05105 35.8679 5.73364 37.3687C6.06395 38.0948 6.27945 38.8606 6.34399 39.6665C6.35985 39.8696 6.32987 40.0635 6.2981 40.2466V40.2476C6.26504 40.4338 6.13012 40.5708 5.95142 40.5903L5.87134 40.5913C5.7786 40.5834 5.68147 40.5498 5.60767 40.4839C5.5312 40.4155 5.48545 40.3162 5.49243 40.1938L5.49829 39.8579C5.47648 38.4207 4.82894 37.2282 4.07642 36.0601L3.72388 35.522C3.02065 34.4625 2.21145 33.4894 1.30591 32.603V32.6021C0.67587 31.9866 0.195119 31.2624 -0.00268555 30.3677C-0.134948 29.7673 -0.132833 29.1613 0.0148926 28.562C0.457101 26.7613 0.829496 24.9454 1.23657 23.1323C1.41263 22.3472 1.80117 21.7011 2.29419 21.1011L3.41919 19.7505C3.78885 19.2988 4.14711 18.8393 4.47778 18.356H4.47876C4.64646 18.112 4.78715 17.8498 4.927 17.5815C5.06599 17.315 5.20464 17.0405 5.3645 16.7788C5.59577 16.3998 5.86081 16.0385 6.20923 15.7476L6.21021 15.7466Z" fill="white" stroke="white" stroke-width="0.2"/>
</g>
<defs>
<clipPath id="clip0_4_668">
<rect width="34" height="40" fill="white" transform="translate(0 0.5)"/>
</clipPath>
</defs>
</svg>
