<svg width="20" height="21" viewBox="0 0 20 21" fill="none" xmlns="http://www.w3.org/2000/svg">
<path d="M3.55643 16.2039C3.74383 17.5958 4.89669 18.6862 6.29964 18.7507C7.48014 18.805 8.67934 18.8333 9.99992 18.8333C11.3205 18.8333 12.5197 18.805 13.7002 18.7507C15.1032 18.6862 16.256 17.5958 16.4434 16.2039C16.5658 15.2956 16.6666 14.3647 16.6666 13.4167C16.6666 12.4687 16.5658 11.5378 16.4434 10.6294C16.256 9.2375 15.1032 8.14707 13.7002 8.08257C12.5197 8.02831 11.3205 8 9.99992 8C8.67934 8 7.48014 8.02831 6.29964 8.08257C4.89669 8.14707 3.74383 9.2375 3.55643 10.6294C3.43413 11.5378 3.33325 12.4687 3.33325 13.4167C3.33325 14.3647 3.43413 15.2956 3.55643 16.2039Z" stroke="black" stroke-width="1.2"/>
<path d="M6.25 7.99984V5.9165C6.25 3.84544 7.92893 2.1665 10 2.1665C12.0711 2.1665 13.75 3.84544 13.75 5.9165V7.99984" stroke="black" stroke-width="1.2" stroke-linecap="round" stroke-linejoin="round"/>
<path d="M13.3333 13.4082V13.4182" stroke="black" stroke-width="1.4" stroke-linecap="round" stroke-linejoin="round"/>
<path d="M10 13.4082V13.4182" stroke="black" stroke-width="1.4" stroke-linecap="round" stroke-linejoin="round"/>
<path d="M6.66675 13.4082V13.4182" stroke="black" stroke-width="1.4" stroke-linecap="round" stroke-linejoin="round"/>
</svg>
