<svg width="17" height="20" viewBox="0 0 17 20" fill="none" xmlns="http://www.w3.org/2000/svg">
<g clip-path="url(#clip0_39_872)">
<path d="M13.8625 10.6051C13.8901 13.626 16.4712 14.6313 16.4998 14.6441C16.4779 14.715 16.0873 16.0767 15.14 17.4832C14.321 18.6993 13.4709 19.9109 12.1318 19.9359C10.8162 19.9606 10.3931 19.1434 8.88883 19.1434C7.38502 19.1434 6.91496 19.9109 5.66946 19.9606C4.37696 20.0103 3.39271 18.6457 2.56696 17.434C0.87946 14.9557 -0.410103 10.4309 1.32146 7.37651C2.18165 5.85968 3.71896 4.89924 5.38746 4.8746C6.65665 4.85003 7.85465 5.74203 8.63052 5.74203C9.4059 5.74203 10.8617 4.66933 12.3921 4.82686C13.0328 4.85397 14.8313 5.08971 15.9861 6.80692C15.893 6.86552 13.8401 8.07956 13.8625 10.6051M11.3898 3.18724C12.076 2.34343 12.5378 1.16883 12.4118 0C11.4227 0.040381 10.2267 0.669587 9.51721 1.51289C8.8814 2.25975 8.32458 3.45505 8.47483 4.6007C9.57733 4.68737 10.7035 4.03156 11.3898 3.18724Z" fill="black"/>
</g>
<defs>
<clipPath id="clip0_39_872">
<rect width="16" height="20" fill="white" transform="translate(0.5)"/>
</clipPath>
</defs>
</svg>
