<svg width="20" height="21" viewBox="0 0 20 21" fill="none" xmlns="http://www.w3.org/2000/svg">
<path d="M5.83325 7.5835L8.28494 9.033C9.71425 9.87808 10.2856 9.87808 11.7149 9.033L14.1666 7.5835" stroke="black" stroke-width="1.2" stroke-linecap="round" stroke-linejoin="round"/>
<path d="M1.67989 11.7295C1.73437 14.2841 1.7616 15.5614 2.70421 16.5076C3.64682 17.4539 4.95869 17.4868 7.58244 17.5527C9.1995 17.5934 10.8007 17.5934 12.4178 17.5527C15.0415 17.4868 16.3533 17.4539 17.2959 16.5076C18.2386 15.5614 18.2658 14.2841 18.3203 11.7295C18.3378 10.9081 18.3378 10.0915 18.3203 9.2702C18.2658 6.71555 18.2386 5.43825 17.2959 4.49205C16.3533 3.54586 15.0415 3.5129 12.4178 3.44698C10.8007 3.40635 9.1995 3.40635 7.58244 3.44697C4.95869 3.51289 3.64682 3.54585 2.70421 4.49205C1.7616 5.43824 1.73436 6.71555 1.67989 9.27011C1.66237 10.0915 1.66237 10.9081 1.67989 11.7295Z" stroke="black" stroke-width="1.2" stroke-linejoin="round"/>
</svg>
