<svg width="20" height="21" viewBox="0 0 20 21" fill="none" xmlns="http://www.w3.org/2000/svg">
<path d="M10.8334 6.33333C10.8334 8.17428 9.341 9.66667 7.50008 9.66667C5.65913 9.66667 4.16675 8.17428 4.16675 6.33333C4.16675 4.49238 5.65913 3 7.50008 3C9.341 3 10.8334 4.49238 10.8334 6.33333Z" stroke="black" stroke-width="1.2"/>
<path d="M12.5 9.66667C14.3409 9.66667 15.8333 8.17428 15.8333 6.33333C15.8333 4.49238 14.3409 3 12.5 3" stroke="black" stroke-width="1.2" stroke-linecap="round" stroke-linejoin="round"/>
<path d="M9.16675 12.1665H5.83341C3.53223 12.1665 1.66675 14.032 1.66675 16.3332C1.66675 17.2537 2.41294 17.9998 3.33341 17.9998H11.6667C12.5872 17.9998 13.3334 17.2537 13.3334 16.3332C13.3334 14.032 11.4679 12.1665 9.16675 12.1665Z" stroke="black" stroke-width="1.2" stroke-linejoin="round"/>
<path d="M14.1667 12.1665C16.4679 12.1665 18.3334 14.032 18.3334 16.3332C18.3334 17.2537 17.5872 17.9998 16.6667 17.9998H15.4167" stroke="black" stroke-width="1.2" stroke-linecap="round" stroke-linejoin="round"/>
</svg>
