<svg width="26" height="27" viewBox="0 0 26 27" fill="none" xmlns="http://www.w3.org/2000/svg">
<g clip-path="url(#clip0_4_1280)">
<path d="M15.5539 17.0252C15.8999 16.6624 16.2368 16.3086 16.5737 15.9547C17.6936 14.7774 18.8045 13.5957 19.9312 12.4273C20.5367 11.7974 21.2948 11.5994 22.1324 11.862C22.9678 12.1246 23.4436 12.7188 23.5665 13.569C23.5847 13.6936 23.6166 13.7225 23.7441 13.7158C24.8162 13.6669 25.6812 14.29 25.9362 15.2848C26.1456 16.0971 25.8019 16.9784 25.0825 17.4614C22.7448 19.0259 20.407 20.5882 18.0692 22.1506C17.7414 22.3687 17.4296 22.609 17.0654 22.7715C16.6625 22.9495 16.2391 23.0096 15.7998 23.0096C13.0659 23.0141 10.3321 23.0207 7.59821 23.0274C6.98588 23.0274 6.44184 23.221 5.97065 23.606C5.90236 23.6617 5.8796 23.7062 5.91829 23.7974C6.33941 24.8301 5.95016 25.9295 4.96452 26.4925C4.7164 26.635 4.46828 26.7752 4.22017 26.9132C3.95384 27.0623 3.73076 27.0222 3.5441 26.7908C2.4014 25.3664 1.25869 23.9421 0.115981 22.5155C-0.0615708 22.293 -0.041084 22.0192 0.161508 21.859C0.370928 21.6943 0.655467 21.7277 0.837571 21.9547C1.82549 23.181 2.80885 24.4095 3.7945 25.6379C3.881 25.7448 3.94246 25.9206 4.06765 25.9339C4.17692 25.9451 4.30211 25.8204 4.42048 25.7581C4.89168 25.5111 5.15801 25.1372 5.16483 24.6053C5.16711 24.3382 5.08516 24.0912 4.91444 23.8798C4.22017 23.0118 3.52362 22.1461 2.82934 21.2782C1.99849 20.2433 1.16764 19.2084 0.336783 18.1736C0.200205 18.0044 0.168336 17.8219 0.279876 17.6328C0.377757 17.4658 0.537098 17.3991 0.730585 17.4169C0.894479 17.4325 1.00147 17.5348 1.09707 17.655C1.25869 17.8598 1.26096 17.8575 1.44307 17.6839C3.20266 16.0103 5.30369 15.0022 7.72568 14.6305C9.25309 14.3968 10.785 14.4013 12.3056 14.6639C13.6714 14.902 14.7003 15.6476 15.4196 16.8026C15.4629 16.8716 15.5038 16.9406 15.5516 17.023L15.5539 17.0252ZM11.6887 22.1283C11.6887 22.1283 11.6887 22.1105 11.6887 22.1038C13.0773 22.1038 14.4636 22.0994 15.8521 22.1038C16.3028 22.1038 16.6989 21.977 17.0677 21.7299C18.6952 20.635 20.3296 19.5467 21.9594 18.454C22.8199 17.8776 23.6826 17.3056 24.5408 16.727C24.9824 16.4287 25.169 15.9369 25.0302 15.4562C24.8094 14.6884 23.9216 14.3701 23.2205 14.8108C20.7962 16.3286 18.3743 17.8486 15.9523 19.3709C15.7997 19.4666 15.6495 19.5089 15.4697 19.5089C13.4984 19.5044 11.5248 19.5066 9.55356 19.5066C9.5012 19.5066 9.44885 19.5089 9.39649 19.5022C9.21666 19.4777 9.08919 19.382 9.02545 19.2151C8.90709 18.9057 9.13472 18.612 9.4921 18.6098C10.719 18.6098 11.9437 18.6098 13.1706 18.6098C13.7716 18.6098 14.3702 18.6098 14.9712 18.6098C15.0599 18.6098 15.1032 18.5986 15.0873 18.4918C14.8778 17.0675 13.6259 15.79 12.1668 15.5519C10.6211 15.3004 9.07098 15.2982 7.52764 15.583C5.36287 15.9814 3.50085 16.9406 1.94386 18.4673C1.85736 18.5519 1.85053 18.6009 1.9302 18.701C3.03876 20.0741 4.14277 21.4495 5.24678 22.8271C5.31962 22.9184 5.35832 22.9362 5.46075 22.856C6.08219 22.3709 6.7924 22.1283 7.5891 22.1305C8.95716 22.1305 10.323 22.1305 11.691 22.1305L11.6887 22.1283ZM15.9978 18.2603C16.0479 18.2314 16.0911 18.2069 16.1344 18.1802C18.224 16.8716 20.3091 15.5563 22.4033 14.2566C22.6218 14.1209 22.6788 13.9584 22.6605 13.7381C22.6173 13.244 22.3601 12.8902 21.882 12.7255C21.3949 12.5586 20.9533 12.6721 20.5982 13.046C19.0981 14.6194 17.6049 16.1995 16.1002 17.7685C15.9545 17.9198 15.8794 18.0534 15.9978 18.2603Z" fill="black"/>
<path d="M12.8886 2.03464e-05C17.5391 -0.00888173 21.1174 2.90432 21.8618 6.88355C22.0848 8.08088 22.0598 9.26708 21.7662 10.4488C21.6956 10.727 21.4589 10.8873 21.2016 10.8272C20.9421 10.7671 20.8078 10.5223 20.8693 10.2419C21.4589 7.60239 20.8511 5.2567 18.9845 3.26486C17.7098 1.90506 16.0959 1.12836 14.2156 0.950317C11.6002 0.701059 9.37848 1.52895 7.6189 3.43845C6.15068 5.03414 5.52242 6.93696 5.69314 9.07791C5.81606 10.6002 6.39424 11.9533 7.36167 13.1484C7.55516 13.3865 7.5415 13.6603 7.32981 13.8272C7.11583 13.9963 6.8404 13.9496 6.64464 13.7137C4.20216 10.7693 4.08834 6.52079 6.3988 3.47851C8.13562 1.19067 10.4939 0.0667859 12.8886 2.03464e-05Z" fill="black"/>
<path d="M7.55518 8.43246C7.55518 5.28113 10.1661 2.73291 13.3962 2.73291C16.6012 2.73291 19.2122 5.28781 19.2122 8.42356C19.2122 11.5949 16.6103 14.1409 13.3734 14.1365C10.1593 14.1342 7.55518 11.5816 7.55518 8.43024V8.43246ZM13.3916 13.2329C16.105 13.2329 18.2902 11.0897 18.2902 8.42801C18.2902 5.78632 16.0936 3.63647 13.3916 3.63647C10.6714 3.63647 8.47936 5.7752 8.47936 8.42579C8.47936 11.0964 10.6646 13.2329 13.3894 13.2307L13.3916 13.2329Z" fill="black"/>
<path d="M13.7102 12.1359C11.5864 12.1114 9.94519 10.2464 10.2343 8.18334C10.3891 7.08393 10.9217 6.21153 11.9028 5.63512C13.198 4.87844 14.9553 5.2501 15.8135 6.44521C16.6512 7.61361 16.246 9.30945 14.9758 9.94372C13.8946 10.4845 12.4878 9.95708 12.1373 8.86657C11.9301 8.22117 12.0713 7.63586 12.547 7.13957C12.7337 6.94372 13.0182 6.93705 13.2049 7.10841C13.3915 7.282 13.3983 7.55129 13.2185 7.75381C12.7929 8.23453 12.9317 8.85767 13.5258 9.13364C14.0107 9.35841 14.5843 9.24269 14.9371 8.84877C15.5586 8.15663 15.4265 7.12622 14.648 6.56093C13.6852 5.86212 12.4127 6.06464 11.6592 7.0372C10.6645 8.32355 11.0879 10.2197 12.5516 10.9519C13.4188 11.3859 14.2838 11.3324 15.1124 10.8273C15.4402 10.627 15.8181 10.785 15.8568 11.1388C15.8772 11.3302 15.7885 11.4727 15.6269 11.575C15.0441 11.9489 14.4022 12.1336 13.7056 12.1359H13.7102Z" fill="black"/>
</g>
<defs>
<clipPath id="clip0_4_1280">
<rect width="26" height="27" fill="white"/>
</clipPath>
</defs>
</svg>
