<svg width="26" height="27" viewBox="0 0 26 27" fill="none" xmlns="http://www.w3.org/2000/svg">
<path d="M17.9723 10.25H16.2498V4.83333C16.2498 4.2375 15.7623 3.75 15.1665 3.75H10.8332C10.2373 3.75 9.74984 4.2375 9.74984 4.83333V10.25H8.02734C7.06317 10.25 6.57567 11.42 7.25817 12.1025L12.2307 17.075C12.6532 17.4975 13.3357 17.4975 13.7582 17.075L18.7307 12.1025C19.4132 11.42 18.9365 10.25 17.9723 10.25ZM5.4165 21.0833C5.4165 21.6792 5.904 22.1667 6.49984 22.1667H19.4998C20.0957 22.1667 20.5832 21.6792 20.5832 21.0833C20.5832 20.4875 20.0957 20 19.4998 20H6.49984C5.904 20 5.4165 20.4875 5.4165 21.0833Z" fill="black"/>
</svg>
