<svg width="32" height="32" viewBox="0 0 32 32" fill="none" xmlns="http://www.w3.org/2000/svg">
<path d="M17.5 27C17.2239 27 17 26.7761 17 26.5V21.5C17 21.2239 17.2239 21 17.5 21H19.9325C20.3564 21 20.588 20.5056 20.3166 20.1799L16.3841 15.4609C16.1842 15.2211 15.8158 15.2211 15.6159 15.4609L11.6834 20.1799C11.412 20.5056 11.6436 21 12.0675 21H14.5C14.7761 21 15 21.2239 15 21.5V26.5C15 26.7761 14.7761 27 14.5 27H10.0243C10.0109 27 10 26.9891 10 26.9757C10 26.9618 9.98824 26.9507 9.97431 26.9518C9.81562 26.964 9.66321 27 9.5 27C7.51088 27 5.60322 26.2098 4.1967 24.8033C2.79018 23.3968 2 21.4891 2 19.5C2 15.7779 4.72268 12.722 8.28019 12.1368C8.49584 12.1014 8.6703 11.9394 8.72182 11.7271C9.10217 10.1593 9.97944 8.75254 11.2274 7.72001C12.5699 6.60928 14.2576 6.00107 16 6C17.7427 6.00096 19.4306 6.60909 20.7734 7.71981C22.0218 8.75234 22.8994 10.1592 23.2801 11.7271C23.3317 11.9395 23.5061 12.1014 23.7217 12.1368C27.279 12.7219 29.998 15.7779 29.998 19.5C29.998 21.4891 29.2078 23.3968 27.8013 24.8033C26.3948 26.2098 24.4871 27 22.498 27C22.3385 27 22.1844 26.9639 22.0237 26.9517C22.0098 26.9507 21.998 26.9618 21.998 26.9757C21.998 26.9891 21.9871 27 21.9737 27H17.5Z" fill="#86021D"/>
</svg>
